<?xml version="1.0" encoding="UTF-8"?>
<svg xmlns="http://www.w3.org/2000/svg" xmlns:xlink="http://www.w3.org/1999/xlink" width="2835" height="2836" viewBox="0 0 2835 2836">
<path fill-rule="evenodd" fill="rgb(2.999878%, 3.999329%, 7.006836%)" fill-opacity="1" d="M 1590.179688 1886.734375 C 1584.480469 1927.550781 1586.621094 1912.824219 1565.691406 1941.261719 C 1544.171875 1970.511719 1572.039062 1968.277344 1524.789062 1982.265625 C 1504.539062 1988.257812 1487.320312 1999.988281 1473.839844 2011.921875 C 1466.660156 2018.269531 1461.050781 2025.046875 1454.550781 2034.628906 C 1449.828125 2041.566406 1445.289062 2052.535156 1440.261719 2057.859375 C 1436.730469 2073.59375 1431.390625 2086.355469 1428.640625 2104.71875 C 1425.628906 2124.890625 1431.328125 2141.539062 1410.320312 2143.046875 C 1395.808594 2121.574219 1417.339844 2037.566406 1321.929688 1989.273438 C 1272.148438 1964.082031 1300.078125 1986.113281 1277.238281 1934.421875 C 1274.390625 1927.984375 1272.628906 1925.109375 1268.300781 1918.917969 C 1263.589844 1912.191406 1260.230469 1910.363281 1260.078125 1903.492188 C 1247.578125 1895.292969 1245.25 1886.726562 1225.25 1884.136719 C 1231 1910.179688 1284.789062 1948.917969 1266.101562 1968.808594 C 1260.800781 1974.449219 1212.578125 1971.570312 1172.308594 1983.792969 C 1145.941406 1991.796875 1114.480469 2004.972656 1103.980469 2026.300781 C 1155.191406 2022.089844 1213.328125 1962.574219 1309 2004.566406 C 1355.351562 2024.910156 1387.058594 2068.132812 1387.789062 2119.804688 C 1388.019531 2136.195312 1384.28125 2164.679688 1375.078125 2170.9375 C 1369.640625 2186.289062 1364.339844 2194.746094 1347.269531 2200.328125 L 1344.480469 2191.953125 C 1335.589844 2180.910156 1343.859375 2202.675781 1338.148438 2185.261719 C 1334.339844 2195.925781 1338.691406 2188.542969 1330.730469 2192.121094 C 1319.988281 2203.945312 1313.578125 2210.429688 1290.148438 2211.304688 L 1287.78125 2203.917969 C 1284.859375 2195.78125 1288.921875 2202.253906 1284.140625 2194.867188 C 1262.730469 2195.3125 1264.820312 2212.390625 1236.011719 2210.707031 C 1212.121094 2209.308594 1197.25 2189.730469 1209.921875 2177.679688 C 1224.921875 2165.207031 1241.511719 2196.921875 1246.558594 2167.917969 C 1236.460938 2159.410156 1230.210938 2166.140625 1216.570312 2148.269531 C 1208.160156 2137.25 1207.78125 2123.519531 1201.558594 2112.261719 C 1191.699219 2112.25 1196.421875 2113.585938 1188.488281 2118.90625 L 1190.789062 2139.148438 C 1061.769531 2144.320312 1048.269531 2160.472656 1061.519531 2077.402344 C 1063.511719 2064.921875 1067.910156 2033.585938 1078.410156 2024.261719 C 1078.460938 1993.558594 1134.460938 1928.859375 1154.730469 1912.164062 C 1168.039062 1901.203125 1194.988281 1874.0625 1209.738281 1871.484375 C 1219.359375 1869.804688 1245.601562 1871.738281 1257.148438 1871.914062 C 1267.21875 1872.066406 1291.46875 1871.785156 1300.421875 1876.445312 C 1302.988281 1875.890625 1547.519531 1873.742188 1552.21875 1874.546875 C 1562.378906 1868.058594 1599.539062 1870.027344 1611.851562 1869.484375 C 1724.261719 1864.515625 1807.96875 2097.765625 1782.089844 2133.484375 C 1772.378906 2148.257812 1727.828125 2140.414062 1708.019531 2140.441406 C 1631.960938 2140.550781 1663.128906 2142.617188 1647.898438 2119.902344 C 1627.410156 2124.738281 1636.171875 2144.855469 1623.921875 2161.839844 C 1620.050781 2167.199219 1610.839844 2174.328125 1609.429688 2180.527344 C 1607.609375 2188.554688 1612.550781 2198.742188 1608.609375 2209.886719 C 1602.699219 2226.609375 1580.171875 2234.539062 1560.398438 2225.226562 C 1542.621094 2216.847656 1540.359375 2200.894531 1522.328125 2194.714844 L 1521.460938 2207.941406 C 1529.140625 2216.996094 1529.738281 2217.175781 1532.398438 2229.523438 C 1508.230469 2226.941406 1496.730469 2216.757812 1489.71875 2197.734375 C 1483.851562 2191.078125 1486.671875 2192.253906 1479.550781 2187.816406 C 1471.988281 2194.941406 1477.488281 2195.089844 1467.519531 2198.289062 C 1403.269531 2120.378906 1464.730469 1959.511719 1639.820312 1998.382812 C 1699.921875 2011.726562 1701.921875 2043.738281 1728.761719 2053.332031 C 1721.941406 2019.523438 1671.640625 1988.40625 1633.578125 1981.480469 C 1613.859375 1977.894531 1596.191406 1981.925781 1578.511719 1979.0625 C 1563.761719 1933.527344 1606.640625 1949.136719 1605.730469 1900.179688 C 1605.339844 1878.898438 1603.328125 1881.136719 1590.179688 1886.734375 Z M 1846.078125 1720.449219 C 1852 1689.359375 1869.988281 1690.429688 1896.929688 1680.601562 C 1915.199219 1673.929688 1943.328125 1660 1963.890625 1658.890625 C 1960.199219 1663.800781 1964.371094 1659.671875 1957.429688 1665.898438 C 1950 1672.578125 1917.300781 1691.378906 1909.148438 1695.488281 C 1891.699219 1704.308594 1868.421875 1717.199219 1846.078125 1720.449219 Z M 995.027344 1734.128906 C 960.410156 1725.328125 906.460938 1684.890625 876.5625 1664.578125 C 868.488281 1659.089844 866.753906 1660.699219 863.675781 1651.640625 C 876.054688 1654.589844 919.425781 1680.078125 934.453125 1687.910156 C 958.90625 1700.648438 993.660156 1714.628906 995.027344 1734.128906 Z M 1854.289062 1667.890625 C 1854.78125 1627.980469 1857.621094 1593.511719 1851.710938 1554.78125 C 1845.71875 1515.519531 1855.421875 1498.910156 1866.019531 1463.171875 C 1874.199219 1435.558594 1881.589844 1399.738281 1886.601562 1370.480469 L 1898.871094 1281.980469 C 1901.46875 1275.480469 1900.519531 1277.519531 1905.238281 1273.191406 C 1917.46875 1341.890625 1925.511719 1418.460938 1916.320312 1491.71875 C 1912.820312 1519.539062 1888.011719 1651.910156 1854.289062 1667.890625 Z M 987.617188 1688.660156 C 978.515625 1683.019531 967.242188 1658.320312 961.109375 1646.179688 C 902.628906 1530.421875 874.425781 1387.871094 901.691406 1259.328125 C 912.113281 1270.46875 932.933594 1341.910156 938.171875 1356.089844 C 963.308594 1424.140625 995.519531 1490.21875 987.078125 1563.761719 C 981.277344 1614.320312 985.382812 1639.609375 987.617188 1688.660156 Z M 1880.75 1664.601562 C 1895.109375 1621.761719 1911.640625 1616.441406 1929.179688 1529.011719 C 1940.980469 1470.171875 1940.269531 1421.671875 1934.339844 1361.128906 C 1923.078125 1246.28125 1905.53125 1140.109375 1908.769531 1019.519531 C 1909.878906 977.929688 1906.398438 867.429688 1967.429688 895.269531 C 1995.101562 907.890625 2037.550781 959.078125 2058.96875 987.191406 C 2165.410156 1126.929688 2167.75 1328.929688 2098.179688 1484.671875 C 2064.980469 1559.011719 2077.820312 1520.679688 2014.75 1533.140625 C 1961.308594 1543.699219 2019.140625 1591.320312 2006.429688 1621.390625 C 1999.640625 1634.480469 1887.25 1664.769531 1880.75 1664.601562 Z M 957.242188 1680.988281 C 941.382812 1674.699219 925.121094 1664.660156 908.535156 1656.539062 C 843.949219 1624.921875 825.644531 1629.480469 782.511719 1566.210938 C 696.378906 1439.878906 649.207031 1265.558594 696.210938 1113.660156 C 721.15625 1033.050781 753.875 1084.988281 780.570312 1054.089844 C 794.925781 1037.480469 787.230469 1015.089844 777.570312 999.890625 C 767.144531 983.480469 750.914062 977.628906 765.910156 952.101562 C 779.667969 928.691406 818.398438 899.011719 846.050781 888.03125 C 906.773438 863.910156 919.621094 886.089844 921.40625 944.359375 C 926.03125 1095.21875 849.886719 1286.828125 883.039062 1469.019531 C 901.082031 1568.148438 955.609375 1664.890625 957.242188 1680.988281 Z M 1495.75 1152.738281 C 1489.300781 1149.660156 1492.140625 1152.929688 1485.058594 1145.359375 L 1480.339844 1149.441406 C 1486.421875 1188.121094 1507.75 1197.171875 1543.859375 1207.980469 C 1579.078125 1218.53125 1599.101562 1231.328125 1627.039062 1244.628906 C 1622.21875 1256.390625 1618.851562 1254.609375 1609.148438 1263.148438 L 1611.878906 1277.078125 C 1634.851562 1276.921875 1630.699219 1257.300781 1666.011719 1259.328125 C 1684.941406 1260.421875 1705.089844 1269.191406 1710.671875 1283.390625 C 1689.96875 1277.859375 1680.429688 1268.101562 1653.460938 1275.25 C 1629.039062 1281.730469 1624.878906 1293.988281 1607.199219 1302.191406 C 1606.289062 1308.230469 1604.128906 1310.808594 1604.320312 1317.300781 C 1604.910156 1337.589844 1602.578125 1329.128906 1611.808594 1332.011719 C 1611.308594 1312.421875 1653.960938 1285.738281 1685.800781 1291.890625 C 1714.128906 1297.359375 1739.988281 1323.210938 1754.820312 1342.359375 C 1778.648438 1373.128906 1825.519531 1464.429688 1823.621094 1510.820312 C 1844.441406 1534.199219 1833.128906 1694.121094 1823.390625 1727.351562 C 1814.441406 1757.890625 1797.019531 1783.46875 1777.828125 1798.78125 C 1760.628906 1812.5 1719.898438 1832.039062 1694.429688 1835.019531 C 1678.28125 1847.207031 1594.679688 1856.113281 1563.738281 1858.359375 C 1514.28125 1861.953125 1460.808594 1860.832031 1410.398438 1860.605469 C 1332.050781 1860.25 1192.960938 1859.789062 1130.671875 1834.871094 C 1064.210938 1817.160156 1024.28125 1776.121094 1012.351562 1709.601562 C 1001.941406 1651.539062 1011.789062 1658.070312 1009.730469 1638.019531 C 979.203125 1575.191406 1034.71875 1398.769531 1098.421875 1332.898438 C 1115.878906 1314.839844 1141.089844 1299.28125 1169.441406 1304.941406 L 1192.980469 1313.039062 L 1203.910156 1310.640625 L 1204.140625 1305.800781 C 1199.601562 1294.570312 1181.109375 1286.941406 1169.46875 1285.230469 C 1148.878906 1282.21875 1139.390625 1289.121094 1124.578125 1291.46875 L 1109.78125 1304.359375 C 1107.039062 1298.75 1109.601562 1303.980469 1101.109375 1301.171875 C 1095.941406 1310.730469 1078.730469 1328.800781 1069.78125 1340.210938 C 1027.460938 1394.171875 1023.949219 1430.941406 1004.320312 1484.960938 C 996.648438 1476.511719 934.96875 1306.328125 925.101562 1279.230469 C 890.09375 1183.089844 919.367188 1155.660156 929.695312 1034.570312 C 937.3125 945.28125 953.691406 823.488281 836.046875 878.429688 C 797.945312 896.230469 777.863281 914.171875 756.925781 940.441406 C 724.164062 981.53125 778.757812 1002.96875 772.550781 1042.96875 C 711.90625 1048.898438 687.871094 1077.019531 673.941406 1127.910156 C 660.84375 1175.78125 661.464844 1244.96875 667.195312 1296.109375 C 681.714844 1425.679688 755.191406 1579.421875 848.871094 1656.171875 C 881.984375 1683.300781 911.488281 1710.03125 954.777344 1730.671875 C 980.675781 1743.019531 991.738281 1746.46875 1010.449219 1765.191406 C 1027.441406 1782.199219 1037.199219 1795.941406 1054.21875 1811.640625 C 1077.441406 1833.050781 1109.171875 1850.449219 1142.320312 1858.542969 L 1172.371094 1864.378906 C 1179.289062 1866.484375 1175.160156 1864.730469 1178.941406 1867.292969 C 1161.539062 1887.636719 1123.898438 1902.769531 1082.871094 1975.648438 C 997.234375 2127.75 1087.128906 2140.738281 989.535156 2142.175781 L 827.238281 2145.597656 C 791.820312 2146.277344 631.699219 2144.824219 612.519531 2152.945312 L 1189.609375 2160.835938 C 1193.53125 2175.496094 1180.78125 2196.511719 1222.601562 2220.3125 C 1263.488281 2243.589844 1328.53125 2226.964844 1366.28125 2199.019531 C 1379.851562 2188.976562 1399.179688 2161.21875 1416.839844 2159.777344 C 1445.691406 2157.417969 1434.449219 2188.859375 1458.621094 2209.839844 C 1475.75 2224.71875 1495.601562 2231.226562 1520.71875 2237.714844 C 1642.628906 2269.1875 1626.421875 2181.578125 1627.730469 2178.289062 C 1643.808594 2151.425781 1728.378906 2159.519531 1765.140625 2159.070312 C 1816.289062 2158.445312 1867.328125 2157.652344 1918.460938 2157.050781 C 2020.46875 2155.84375 2123.601562 2154.113281 2224.53125 2151.691406 C 2160.449219 2146.335938 1821.699219 2146.113281 1803.089844 2139.078125 C 1798.429688 2038.234375 1774.230469 1980.179688 1714.738281 1911.679688 C 1705.308594 1900.832031 1700.109375 1895.804688 1688.820312 1886.484375 C 1676.128906 1876.011719 1666.878906 1871.210938 1661.160156 1860.015625 C 1721.398438 1859.683594 1775.589844 1830 1808.25 1787.25 C 1831.800781 1756.421875 1834.671875 1750.480469 1874.171875 1726.921875 C 1914.171875 1703.070312 1951.480469 1688.808594 1985.488281 1663.78125 C 2051.578125 1615.128906 2014.75 1603.46875 2006.691406 1550.21875 C 2080.28125 1560.980469 2111.359375 1509.398438 2129.660156 1452.96875 C 2148.019531 1396.339844 2159.378906 1329.769531 2158.699219 1263.03125 C 2157.320312 1126.679688 2109.558594 1014.539062 2041.429688 941.578125 C 2025.539062 924.550781 2007.980469 903.050781 1981.039062 890.960938 C 1951.890625 877.890625 1917.460938 884.761719 1901.960938 906.691406 C 1890.601562 922.738281 1898.800781 986.640625 1899.609375 1010.558594 C 1900.839844 1047.058594 1900.53125 1082.351562 1899.300781 1118.828125 C 1895.761719 1223.839844 1879.378906 1350.53125 1853.78125 1454.21875 C 1852.179688 1460.679688 1850.011719 1466.640625 1847.738281 1474.949219 C 1846.921875 1477.910156 1845.609375 1483.761719 1844.539062 1486.691406 L 1841.511719 1493.101562 C 1841.339844 1492.660156 1840.761719 1494.53125 1840.300781 1495.179688 C 1833.238281 1486.078125 1821.75 1444.578125 1816.621094 1431.140625 C 1793.101562 1369.570312 1765.511719 1312.851562 1717.308594 1271.71875 C 1684.21875 1243.488281 1649.570312 1231.441406 1600.988281 1216.730469 C 1546.648438 1200.28125 1525.359375 1185.960938 1495.75 1152.738281 "/>
<path fill-rule="evenodd" fill="rgb(73.046875%, 60.9375%, 77.929688%)" fill-opacity="1" d="M 1880.75 1664.601562 C 1887.25 1664.769531 1999.640625 1634.480469 2006.429688 1621.390625 C 2019.140625 1591.320312 1961.308594 1543.699219 2014.75 1533.140625 C 2077.820312 1520.679688 2064.980469 1559.011719 2098.179688 1484.671875 C 2167.75 1328.929688 2165.410156 1126.929688 2058.96875 987.191406 C 2037.550781 959.078125 1995.101562 907.890625 1967.429688 895.269531 C 1906.398438 867.429688 1909.878906 977.929688 1908.769531 1019.519531 C 1905.53125 1140.109375 1923.078125 1246.28125 1934.339844 1361.128906 C 1940.269531 1421.671875 1940.980469 1470.171875 1929.179688 1529.011719 C 1911.640625 1616.441406 1895.109375 1621.761719 1880.75 1664.601562 "/>
<path fill-rule="evenodd" fill="rgb(73.046875%, 60.9375%, 77.929688%)" fill-opacity="1" d="M 957.242188 1680.988281 C 955.609375 1664.890625 901.082031 1568.148438 883.039062 1469.019531 C 849.886719 1286.828125 926.03125 1095.21875 921.40625 944.359375 C 919.621094 886.089844 906.773438 863.910156 846.050781 888.03125 C 818.398438 899.011719 779.667969 928.691406 765.910156 952.101562 C 750.914062 977.628906 767.144531 983.480469 777.570312 999.890625 C 787.230469 1015.089844 794.925781 1037.480469 780.570312 1054.089844 C 753.875 1084.988281 721.15625 1033.050781 696.210938 1113.660156 C 649.207031 1265.558594 696.378906 1439.878906 782.511719 1566.210938 C 825.644531 1629.480469 843.949219 1624.921875 908.535156 1656.539062 C 925.121094 1664.660156 941.382812 1674.699219 957.242188 1680.988281 "/>
<path fill-rule="evenodd" fill="rgb(42.993164%, 58.006287%, 78.90625%)" fill-opacity="1" d="M 1335.050781 1441.78125 C 1336.109375 1435.808594 1335.960938 1434.039062 1338.199219 1428.589844 C 1345.269531 1411.390625 1333.171875 1436.25 1340.300781 1424.410156 C 1343.800781 1418.601562 1340.421875 1423.039062 1344.828125 1418.929688 C 1355.800781 1412.71875 1361.839844 1405.199219 1378.550781 1399.410156 C 1393.191406 1394.339844 1408.710938 1392.191406 1425.449219 1392.570312 C 1449.191406 1393.121094 1497.609375 1403.410156 1501.160156 1427.609375 L 1503.578125 1440.71875 C 1506.019531 1447.808594 1506.410156 1440.199219 1508.980469 1451.519531 C 1479.121094 1445.28125 1470.558594 1434.019531 1416.410156 1434.53125 C 1359.851562 1435.070312 1343.71875 1452.410156 1323.429688 1452.199219 C 1327.289062 1443.78125 1327.089844 1446.671875 1335.050781 1441.78125 Z M 1421.308594 1169.589844 C 1417.570312 1182.121094 1424.441406 1172.449219 1414.960938 1180.410156 C 1411.28125 1183.5 1407.601562 1183.71875 1403.910156 1184.28125 C 1366.789062 1189.898438 1374.960938 1186.199219 1327.511719 1197.480469 C 1299.671875 1204.089844 1256.160156 1216.25 1239.378906 1228.371094 C 1236.988281 1238.871094 1240.5 1232.46875 1231.878906 1238.429688 L 1206.578125 1253.101562 L 1213.488281 1276.949219 L 1214.5 1283.699219 C 1214.449219 1284.421875 1214.179688 1285.351562 1214.078125 1286.078125 L 1212.109375 1294.460938 C 1211.25 1306.179688 1215.058594 1299.050781 1212.308594 1309.121094 C 1213.851562 1313.070312 1212.460938 1310.121094 1214.75 1314.738281 C 1225.378906 1336.300781 1224.570312 1326.609375 1225.199219 1354.628906 C 1222.019531 1352.121094 1219.390625 1352.839844 1216.53125 1350.21875 C 1219.929688 1373.480469 1224.050781 1351.910156 1232.039062 1404.96875 C 1235.210938 1425.988281 1238.03125 1444.03125 1241.570312 1466.191406 C 1247.449219 1502.980469 1256.019531 1550.21875 1257.429688 1587.730469 L 1262.609375 1590.089844 C 1270.449219 1579.378906 1272.660156 1540.101562 1317.460938 1503.738281 C 1436.71875 1406.941406 1580.359375 1514.871094 1569.761719 1617.761719 L 1573.429688 1617.761719 C 1576.449219 1591.441406 1570.828125 1566.410156 1572.871094 1537.28125 C 1576.308594 1488.289062 1579.179688 1439.71875 1588.371094 1392.03125 C 1590.691406 1379.96875 1592.929688 1374.691406 1596.378906 1362.769531 C 1603.089844 1339.53125 1606.019531 1349.441406 1611.808594 1332.011719 C 1602.578125 1329.128906 1604.910156 1337.589844 1604.320312 1317.300781 C 1604.128906 1310.808594 1606.289062 1308.230469 1607.199219 1302.191406 C 1611.070312 1290.390625 1610.410156 1296.839844 1615.390625 1287.089844 C 1612.308594 1282.75 1613.378906 1283.449219 1611.878906 1277.078125 L 1609.148438 1263.148438 C 1618.851562 1254.609375 1622.21875 1256.390625 1627.039062 1244.628906 C 1599.101562 1231.328125 1579.078125 1218.53125 1543.859375 1207.980469 C 1507.75 1197.171875 1486.421875 1188.121094 1480.339844 1149.441406 L 1472.738281 1149.621094 L 1472.671875 1166.691406 L 1461.5 1153.460938 C 1459.121094 1153.039062 1454.628906 1154.601562 1444.328125 1147.828125 C 1446.078125 1162.039062 1443.941406 1151.730469 1440.058594 1154.539062 C 1435.21875 1158.03125 1438.699219 1155.058594 1433.929688 1157.859375 C 1428.328125 1161.148438 1423.089844 1167.640625 1412.898438 1163.851562 C 1431.488281 1166.519531 1414.460938 1162.980469 1421.308594 1169.589844 "/>
<path fill-rule="evenodd" fill="rgb(43.992615%, 58.006287%, 81.054688%)" fill-opacity="1" d="M 1590.179688 1886.734375 C 1603.328125 1881.136719 1605.339844 1878.898438 1605.730469 1900.179688 C 1606.640625 1949.136719 1563.761719 1933.527344 1578.511719 1979.0625 C 1596.191406 1981.925781 1613.859375 1977.894531 1633.578125 1981.480469 C 1671.640625 1988.40625 1721.941406 2019.523438 1728.761719 2053.332031 C 1701.921875 2043.738281 1699.921875 2011.726562 1639.820312 1998.382812 C 1464.730469 1959.511719 1403.269531 2120.378906 1467.519531 2198.289062 C 1477.488281 2195.089844 1471.988281 2194.941406 1479.550781 2187.816406 C 1486.671875 2192.253906 1483.851562 2191.078125 1489.71875 2197.734375 C 1503.71875 2197.605469 1499.839844 2207.136719 1514.761719 2212.3125 L 1522.328125 2194.714844 C 1540.359375 2200.894531 1542.621094 2216.847656 1560.398438 2225.226562 C 1580.171875 2234.539062 1602.699219 2226.609375 1608.609375 2209.886719 C 1612.550781 2198.742188 1607.609375 2188.554688 1609.429688 2180.527344 C 1610.839844 2174.328125 1620.050781 2167.199219 1623.921875 2161.839844 C 1636.171875 2144.855469 1627.410156 2124.738281 1647.898438 2119.902344 C 1663.128906 2142.617188 1631.960938 2140.550781 1708.019531 2140.441406 C 1727.828125 2140.414062 1772.378906 2148.257812 1782.089844 2133.484375 C 1807.96875 2097.765625 1724.261719 1864.515625 1611.851562 1869.484375 C 1599.539062 1870.027344 1562.378906 1868.058594 1552.21875 1874.546875 L 1589.578125 1876.304688 L 1590.179688 1886.734375 "/>
<path fill-rule="evenodd" fill="rgb(11.009216%, 18.992615%, 44.993591%)" fill-opacity="1" d="M 1262.609375 1590.089844 C 1261.160156 1639.078125 1262.820312 1649.308594 1307.089844 1703.011719 C 1350.761719 1755.980469 1395.710938 1744.480469 1411.640625 1762.070312 C 1404.160156 1767.550781 1394 1767.308594 1384.261719 1767.910156 C 1375.789062 1768.429688 1366.019531 1768.851562 1360.460938 1772.359375 C 1367.890625 1772.769531 1388.960938 1770.261719 1395.789062 1769.539062 C 1426.429688 1766.308594 1403.621094 1758.71875 1429.941406 1760.351562 C 1436.140625 1755.960938 1453.609375 1755.210938 1479.230469 1740.910156 C 1543.421875 1705.089844 1549.421875 1664.320312 1569.761719 1617.761719 C 1580.359375 1514.871094 1436.71875 1406.941406 1317.460938 1503.738281 C 1272.660156 1540.101562 1270.449219 1579.378906 1262.609375 1590.089844 "/>
<path fill-rule="evenodd" fill="rgb(42.993164%, 57.03125%, 77.929688%)" fill-opacity="1" d="M 1078.410156 2024.261719 C 1082 2037.640625 1070.269531 2061.964844 1068.421875 2075.34375 C 1065.480469 2096.496094 1066.269531 2121.839844 1076.710938 2134.390625 C 1076.710938 2134.390625 1162.589844 2141.605469 1177.890625 2128.066406 L 1188.488281 2118.90625 C 1196.421875 2113.585938 1191.699219 2112.25 1201.558594 2112.261719 C 1207.78125 2123.519531 1208.160156 2137.25 1216.570312 2148.269531 C 1230.210938 2166.140625 1236.460938 2159.410156 1246.558594 2167.917969 C 1241.511719 2196.921875 1224.921875 2165.207031 1209.921875 2177.679688 C 1197.25 2189.730469 1212.121094 2209.308594 1236.011719 2210.707031 C 1264.820312 2212.390625 1262.730469 2195.3125 1284.140625 2194.867188 C 1288.921875 2202.253906 1284.859375 2195.78125 1287.78125 2203.917969 L 1290.148438 2211.304688 C 1313.578125 2210.429688 1319.988281 2203.945312 1330.730469 2192.121094 L 1336.230469 2180.46875 L 1342.878906 2182.273438 L 1356.28125 2182.722656 C 1364.738281 2174.84375 1363.671875 2178.75 1368.589844 2168.5 L 1375.078125 2170.9375 C 1384.28125 2164.679688 1388.019531 2136.195312 1387.789062 2119.804688 C 1387.058594 2068.132812 1355.351562 2024.910156 1309 2004.566406 C 1213.328125 1962.574219 1155.191406 2022.089844 1103.980469 2026.300781 C 1114.480469 2004.972656 1145.941406 1991.796875 1172.308594 1983.792969 C 1212.578125 1971.570312 1260.800781 1974.449219 1266.101562 1968.808594 C 1284.789062 1948.917969 1231 1910.179688 1225.25 1884.136719 C 1245.25 1886.726562 1247.578125 1895.292969 1260.078125 1903.492188 L 1258.960938 1894.972656 L 1246.929688 1874.238281 L 1300.421875 1876.445312 C 1291.46875 1871.785156 1267.21875 1872.066406 1257.148438 1871.914062 C 1245.601562 1871.738281 1219.359375 1869.804688 1209.738281 1871.484375 C 1194.988281 1874.0625 1168.039062 1901.203125 1154.730469 1912.164062 C 1134.460938 1928.859375 1078.460938 1993.558594 1078.410156 2024.261719 "/>
<path fill-rule="evenodd" fill="rgb(58.006287%, 83.006287%, 97.068787%)" fill-opacity="1" d="M 1782.109375 1581.699219 C 1770.871094 1638.148438 1737.339844 1698.550781 1672.011719 1695.480469 C 1640.089844 1693.980469 1618.359375 1669.769531 1603.511719 1653.25 C 1581.089844 1628.308594 1583.871094 1604.96875 1593.390625 1559.648438 C 1632.128906 1375.179688 1813.269531 1425.21875 1782.109375 1581.699219 Z M 1611.808594 1332.011719 C 1606.019531 1349.441406 1603.089844 1339.53125 1596.378906 1362.769531 C 1592.929688 1374.691406 1590.691406 1379.96875 1588.371094 1392.03125 C 1579.179688 1439.71875 1576.308594 1488.289062 1572.871094 1537.28125 C 1570.828125 1566.410156 1576.449219 1591.441406 1573.429688 1617.761719 C 1581.578125 1658.398438 1589.480469 1692.308594 1621.378906 1710.449219 C 1657.929688 1731.230469 1701.589844 1728.390625 1740.199219 1713.46875 C 1790.53125 1694.019531 1819.71875 1628.660156 1826.648438 1578.96875 C 1829.980469 1555.089844 1820.570312 1526.898438 1823.621094 1510.820312 C 1825.519531 1464.429688 1778.648438 1373.128906 1754.820312 1342.359375 C 1739.988281 1323.210938 1714.128906 1297.359375 1685.800781 1291.890625 C 1653.960938 1285.738281 1611.308594 1312.421875 1611.808594 1332.011719 "/>
<path fill-rule="evenodd" fill="rgb(58.006287%, 83.006287%, 97.068787%)" fill-opacity="1" d="M 1108.128906 1687.480469 C 1098.609375 1684.121094 1103.429688 1688.46875 1099.699219 1679.53125 C 1081.769531 1667.398438 1067.058594 1640.050781 1059.128906 1617.671875 C 1019.328125 1505.328125 1131.640625 1423.820312 1195.558594 1483.949219 C 1232.171875 1518.378906 1290.480469 1657.320312 1190.648438 1698.460938 C 1156.339844 1712.601562 1134.03125 1701.660156 1108.128906 1687.480469 Z M 1009.730469 1638.019531 L 1012.949219 1642.070312 C 1020.898438 1655.921875 1021.421875 1673.5 1065.789062 1703.601562 C 1087.558594 1718.371094 1122.808594 1733.140625 1158.011719 1731.640625 C 1193.550781 1730.121094 1220.449219 1712.089844 1237.371094 1691.160156 C 1263.921875 1658.300781 1258.109375 1635.78125 1257.429688 1587.730469 C 1256.019531 1550.21875 1247.449219 1502.980469 1241.570312 1466.191406 C 1238.03125 1444.03125 1235.210938 1425.988281 1232.039062 1404.96875 C 1224.050781 1351.910156 1219.929688 1373.480469 1216.53125 1350.21875 C 1215.761719 1341.328125 1213.328125 1337.789062 1207.261719 1330.828125 C 1203.5 1326.519531 1203.378906 1327.410156 1199.808594 1323.460938 C 1193.679688 1316.710938 1196.78125 1320.828125 1192.980469 1313.039062 L 1169.441406 1304.941406 C 1141.089844 1299.28125 1115.878906 1314.839844 1098.421875 1332.898438 C 1034.71875 1398.769531 979.203125 1575.191406 1009.730469 1638.019531 "/>
<path fill-rule="evenodd" fill="rgb(59.959412%, 83.006287%, 97.068787%)" fill-opacity="1" d="M 1305.710938 1810.171875 C 1318.539062 1802.140625 1344.851562 1813.101562 1365.191406 1813.648438 C 1387.570312 1814.261719 1409.050781 1814.460938 1431.449219 1813.46875 C 1455.371094 1812.421875 1540.578125 1797.589844 1552.101562 1804.160156 C 1549.828125 1806.359375 1550.890625 1805.851562 1546.738281 1808.261719 C 1524.890625 1820.949219 1456.179688 1826.480469 1431.449219 1826.960938 C 1411.96875 1827.328125 1309.570312 1833.140625 1305.710938 1810.171875 Z M 1095.53125 1787.300781 L 1086.871094 1787.878906 C 1102.730469 1795.070312 1111.609375 1811.929688 1130.671875 1834.871094 C 1192.960938 1859.789062 1332.050781 1860.25 1410.398438 1860.605469 C 1460.808594 1860.832031 1514.28125 1861.953125 1563.738281 1858.359375 C 1594.679688 1856.113281 1678.28125 1847.207031 1694.429688 1835.019531 C 1700.03125 1816.421875 1724.671875 1795.140625 1735.339844 1782.941406 L 1714.871094 1784.589844 C 1693.980469 1782.679688 1658.390625 1787.320312 1632.839844 1786.628906 C 1606.628906 1785.929688 1581.46875 1784.378906 1554.699219 1783.628906 C 1500.480469 1782.089844 1446.578125 1781.210938 1392.359375 1783.75 C 1341.410156 1786.140625 1294.53125 1792.960938 1243.070312 1796.820312 C 1218.621094 1798.660156 1190.191406 1799.640625 1164.199219 1797.648438 C 1146.519531 1796.300781 1103.519531 1786.710938 1095.53125 1787.300781 "/>
<path fill-rule="evenodd" fill="rgb(1.000977%, 1.997375%, 2.999878%)" fill-opacity="1" d="M 1658.859375 1465.699219 C 1693.421875 1444.308594 1712.339844 1508.890625 1677.550781 1527.351562 C 1639.511719 1547.539062 1618.800781 1490.480469 1658.859375 1465.699219 Z M 1782.109375 1581.699219 C 1813.269531 1425.21875 1632.128906 1375.179688 1593.390625 1559.648438 C 1583.871094 1604.96875 1581.089844 1628.308594 1603.511719 1653.25 C 1618.359375 1669.769531 1640.089844 1693.980469 1672.011719 1695.480469 C 1737.339844 1698.550781 1770.871094 1638.148438 1782.109375 1581.699219 "/>
<path fill-rule="evenodd" fill="rgb(1.000977%, 1.997375%, 2.999878%)" fill-opacity="1" d="M 1191.730469 1530.589844 C 1178.808594 1571.148438 1123.199219 1549.871094 1137.421875 1501.558594 C 1150.460938 1457.269531 1203.539062 1493.550781 1191.730469 1530.589844 Z M 1099.699219 1679.53125 L 1108.128906 1687.480469 C 1134.03125 1701.660156 1156.339844 1712.601562 1190.648438 1698.460938 C 1290.480469 1657.320312 1232.171875 1518.378906 1195.558594 1483.949219 C 1131.640625 1423.820312 1019.328125 1505.328125 1059.128906 1617.671875 C 1067.058594 1640.050781 1081.769531 1667.398438 1099.699219 1679.53125 "/>
<path fill-rule="evenodd" fill="rgb(59.959412%, 84.959412%, 98.046875%)" fill-opacity="1" d="M 1300.421875 1876.445312 L 1246.929688 1874.238281 L 1258.960938 1894.972656 C 1281.339844 1915.558594 1281.191406 1929.089844 1291.328125 1952.566406 L 1301.058594 1970.511719 C 1307.921875 1977.550781 1301.550781 1972.289062 1310.878906 1976.414062 L 1346.78125 1994.3125 C 1357.621094 2000.085938 1349.921875 2003.621094 1367.121094 1998.871094 C 1366.871094 1985.253906 1364.851562 1987.410156 1354.851562 1981.53125 L 1356.511719 1975.289062 C 1352.351562 1947.0625 1367.828125 1936.730469 1386.851562 1915.855469 C 1392.28125 1909.890625 1394.449219 1906.214844 1405.441406 1908.222656 L 1403.210938 1916.289062 C 1408.390625 1921.792969 1411.871094 1906.578125 1407.378906 1924.136719 C 1407.691406 1924.777344 1410.980469 1944.027344 1414.441406 1950.003906 C 1415.339844 1949.664062 1416.96875 1949.523438 1417.300781 1949.59375 C 1417.46875 1949.632812 1418.621094 1949.941406 1418.800781 1949.984375 C 1418.988281 1950.035156 1419.789062 1950.558594 1420.339844 1950.699219 C 1431.699219 1977.710938 1394.121094 2002.699219 1410.398438 2029.800781 C 1422.78125 2017.945312 1415.261719 1990.054688 1425.429688 1976.199219 C 1438.421875 1993.300781 1427.699219 2034.195312 1419.660156 2050.851562 C 1411.761719 2055.960938 1402.351562 2060.253906 1397.148438 2052.410156 L 1414.058594 2113.269531 C 1416.421875 2122.5625 1409.058594 2118.566406 1417.28125 2124.242188 C 1419.46875 2105.847656 1424.460938 2067.707031 1440.261719 2057.859375 C 1445.289062 2052.535156 1449.828125 2041.566406 1454.550781 2034.628906 C 1461.050781 2025.046875 1466.660156 2018.269531 1473.839844 2011.921875 C 1487.320312 1999.988281 1504.539062 1988.257812 1524.789062 1982.265625 C 1572.039062 1968.277344 1544.171875 1970.511719 1565.691406 1941.261719 C 1586.621094 1912.824219 1584.480469 1927.550781 1590.179688 1886.734375 L 1589.578125 1876.304688 L 1552.21875 1874.546875 C 1547.519531 1873.742188 1302.988281 1875.890625 1300.421875 1876.445312 "/>
<path fill-rule="evenodd" fill="rgb(43.992615%, 58.006287%, 81.054688%)" fill-opacity="1" d="M 1573.429688 1617.761719 L 1569.761719 1617.761719 C 1549.421875 1664.320312 1543.421875 1705.089844 1479.230469 1740.910156 C 1453.609375 1755.210938 1436.140625 1755.960938 1429.941406 1760.351562 C 1463.378906 1765.589844 1655.621094 1775.199219 1697.539062 1769.851562 C 1758.339844 1762.101562 1750.410156 1751.789062 1762.128906 1741.390625 C 1779.859375 1744.078125 1788.320312 1752.140625 1790.339844 1769.648438 C 1773.691406 1769.28125 1725.328125 1775.910156 1714.871094 1784.589844 L 1735.339844 1782.941406 C 1724.671875 1795.140625 1700.03125 1816.421875 1694.429688 1835.019531 C 1719.898438 1832.039062 1760.628906 1812.5 1777.828125 1798.78125 C 1797.019531 1783.46875 1814.441406 1757.890625 1823.390625 1727.351562 C 1833.128906 1694.121094 1844.441406 1534.199219 1823.621094 1510.820312 C 1820.570312 1526.898438 1829.980469 1555.089844 1826.648438 1578.96875 C 1819.71875 1628.660156 1790.53125 1694.019531 1740.199219 1713.46875 C 1701.589844 1728.390625 1657.929688 1731.230469 1621.378906 1710.449219 C 1589.480469 1692.308594 1581.578125 1658.398438 1573.429688 1617.761719 "/>
<path fill-rule="evenodd" fill="rgb(43.992615%, 58.006287%, 81.054688%)" fill-opacity="1" d="M 1009.730469 1638.019531 C 1011.789062 1658.070312 1001.941406 1651.539062 1012.351562 1709.601562 C 1024.28125 1776.121094 1064.210938 1817.160156 1130.671875 1834.871094 C 1111.609375 1811.929688 1102.730469 1795.070312 1086.871094 1787.878906 L 1095.53125 1787.300781 C 1094.859375 1786.730469 1093.75 1785.160156 1093.371094 1785.789062 C 1093.289062 1785.929688 1062.371094 1768.871094 1058.96875 1753.058594 C 1077.148438 1744.019531 1092.46875 1746.320312 1106.75 1759.070312 C 1093.460938 1769.460938 1098.320312 1758.328125 1096.199219 1766.089844 C 1202.890625 1801.640625 1277.839844 1765.648438 1360.460938 1772.359375 C 1366.019531 1768.851562 1375.789062 1768.429688 1384.261719 1767.910156 C 1394 1767.308594 1404.160156 1767.550781 1411.640625 1762.070312 C 1395.710938 1744.480469 1350.761719 1755.980469 1307.089844 1703.011719 C 1262.820312 1649.308594 1261.160156 1639.078125 1262.609375 1590.089844 L 1257.429688 1587.730469 C 1258.109375 1635.78125 1263.921875 1658.300781 1237.371094 1691.160156 C 1220.449219 1712.089844 1193.550781 1730.121094 1158.011719 1731.640625 C 1122.808594 1733.140625 1087.558594 1718.371094 1065.789062 1703.601562 C 1021.421875 1673.5 1020.898438 1655.921875 1012.949219 1642.070312 L 1009.730469 1638.019531 "/>
<path fill-rule="evenodd" fill="rgb(44.993591%, 56.054688%, 75.976562%)" fill-opacity="1" d="M 987.617188 1688.660156 C 985.382812 1639.609375 981.277344 1614.320312 987.078125 1563.761719 C 995.519531 1490.21875 963.308594 1424.140625 938.171875 1356.089844 C 932.933594 1341.910156 912.113281 1270.46875 901.691406 1259.328125 C 874.425781 1387.871094 902.628906 1530.421875 961.109375 1646.179688 C 967.242188 1658.320312 978.515625 1683.019531 987.617188 1688.660156 "/>
<path fill-rule="evenodd" fill="rgb(44.993591%, 56.054688%, 75.976562%)" fill-opacity="1" d="M 1854.289062 1667.890625 C 1888.011719 1651.910156 1912.820312 1519.539062 1916.320312 1491.71875 C 1925.511719 1418.460938 1917.46875 1341.890625 1905.238281 1273.191406 C 1900.519531 1277.519531 1901.46875 1275.480469 1898.871094 1281.980469 L 1886.601562 1370.480469 C 1881.589844 1399.738281 1874.199219 1435.558594 1866.019531 1463.171875 C 1855.421875 1498.910156 1845.71875 1515.519531 1851.710938 1554.78125 C 1857.621094 1593.511719 1854.78125 1627.980469 1854.289062 1667.890625 "/>
<path fill-rule="evenodd" fill="rgb(3.999329%, 4.998779%, 12.988281%)" fill-opacity="1" d="M 1429.941406 1760.351562 C 1403.621094 1758.71875 1426.429688 1766.308594 1395.789062 1769.539062 C 1388.960938 1770.261719 1367.890625 1772.769531 1360.460938 1772.359375 C 1277.839844 1765.648438 1202.890625 1801.640625 1096.199219 1766.089844 C 1098.320312 1758.328125 1093.460938 1769.460938 1106.75 1759.070312 C 1092.46875 1746.320312 1077.148438 1744.019531 1058.96875 1753.058594 C 1062.371094 1768.871094 1093.289062 1785.929688 1093.371094 1785.789062 C 1093.75 1785.160156 1094.859375 1786.730469 1095.53125 1787.300781 C 1103.519531 1786.710938 1146.519531 1796.300781 1164.199219 1797.648438 C 1190.191406 1799.640625 1218.621094 1798.660156 1243.070312 1796.820312 C 1294.53125 1792.960938 1341.410156 1786.140625 1392.359375 1783.75 C 1446.578125 1781.210938 1500.480469 1782.089844 1554.699219 1783.628906 C 1581.46875 1784.378906 1606.628906 1785.929688 1632.839844 1786.628906 C 1658.390625 1787.320312 1693.980469 1782.679688 1714.871094 1784.589844 C 1725.328125 1775.910156 1773.691406 1769.28125 1790.339844 1769.648438 C 1788.320312 1752.140625 1779.859375 1744.078125 1762.128906 1741.390625 C 1750.410156 1751.789062 1758.339844 1762.101562 1697.539062 1769.851562 C 1655.621094 1775.199219 1463.378906 1765.589844 1429.941406 1760.351562 "/>
<path fill-rule="evenodd" fill="rgb(3.999329%, 4.998779%, 7.006836%)" fill-opacity="1" d="M 1130.878906 1273.519531 C 1130.390625 1280.199219 1129.070312 1278.230469 1136.320312 1277.960938 C 1166.671875 1261.578125 1187.078125 1282.769531 1208.980469 1284.878906 C 1213.328125 1280.558594 1209.488281 1287.28125 1213.488281 1276.949219 C 1206 1272.429688 1194.488281 1264.550781 1189.03125 1257.019531 C 1195.230469 1246.410156 1227.078125 1231.570312 1239.378906 1228.371094 C 1256.160156 1216.25 1299.671875 1204.089844 1327.511719 1197.480469 C 1374.960938 1186.199219 1366.789062 1189.898438 1403.910156 1184.28125 C 1407.601562 1183.71875 1411.28125 1183.5 1414.960938 1180.410156 C 1424.441406 1172.449219 1417.570312 1182.121094 1421.308594 1169.589844 C 1410.410156 1168.660156 1384.191406 1167.238281 1377.101562 1160.820312 C 1400.628906 1148.550781 1409.179688 1147.878906 1438.871094 1152.578125 C 1431.21875 1138.121094 1422.648438 1135.128906 1418.96875 1118.308594 C 1436.859375 1123.039062 1454.710938 1136.101562 1461.5 1153.460938 L 1472.671875 1166.691406 L 1472.738281 1149.621094 C 1473.078125 1144.640625 1474.640625 1139.558594 1472.171875 1134.859375 C 1468.609375 1128.109375 1468.410156 1131.238281 1462.179688 1132.121094 C 1451.109375 1133.371094 1451.691406 1123.660156 1437.660156 1115.480469 C 1427.320312 1109.460938 1415.890625 1106.378906 1400.03125 1108.511719 L 1413.511719 1139.539062 C 1369.960938 1144.988281 1364.78125 1134.410156 1363.871094 1180.089844 C 1287.398438 1181.550781 1213.089844 1212.621094 1153.609375 1255.78125 C 1145.761719 1261.46875 1138.058594 1268.960938 1130.878906 1273.519531 "/>
<path fill-rule="evenodd" fill="rgb(76.951599%, 77.929688%, 90.039062%)" fill-opacity="1" d="M 1717.308594 915.710938 L 1724.691406 931.941406 C 1744.871094 928.558594 1745.148438 921.140625 1771.058594 925.398438 C 1761.488281 917.25 1756.351562 922.339844 1750.789062 917.320312 C 1768.328125 910.300781 1780.28125 903.53125 1798.148438 917.601562 C 1813.558594 929.71875 1817.730469 942.691406 1811.429688 965.300781 C 1803.429688 961.019531 1811.191406 967.96875 1804.410156 956.300781 C 1803.210938 954.238281 1802.171875 952.140625 1800.960938 950 L 1798.28125 945.601562 C 1799.398438 953.210938 1802.101562 961.191406 1801.71875 968.53125 C 1801.460938 973.46875 1801.171875 974.429688 1799.070312 978.808594 C 1794.929688 987.488281 1799.28125 979.871094 1794.238281 984.878906 C 1790.21875 1005.289062 1772.011719 1017.871094 1756.910156 1029.351562 L 1744.300781 1033.710938 C 1736.808594 1039.78125 1732.089844 1039.589844 1723.109375 1044.289062 C 1717.058594 1047.46875 1711.058594 1054.398438 1703.148438 1052.621094 C 1702.53125 1053.589844 1701.578125 1053.78125 1701.289062 1055.539062 C 1701.011719 1057.171875 1700 1057.609375 1699.671875 1058.339844 C 1696.78125 1064.621094 1698.980469 1058.320312 1696.980469 1065.46875 C 1683.859375 1064.640625 1689.460938 1067.28125 1674.949219 1067.890625 C 1668.429688 1058.828125 1660.160156 1042.359375 1658.019531 1028.421875 L 1657.5 1023.851562 C 1652.601562 1018.699219 1651.769531 1016.988281 1647.640625 1007.601562 C 1637.019531 983.429688 1638.328125 967.03125 1634.179688 941.671875 C 1637.300781 899.421875 1668.480469 898.808594 1670.140625 893.949219 C 1670.480469 892.96875 1671.550781 893.210938 1672.191406 892.730469 L 1653.328125 894.859375 C 1653.058594 846.980469 1733.101562 888.621094 1717.308594 915.710938 Z M 1696.980469 1065.46875 C 1708.609375 1066.050781 1719.589844 1057.890625 1729.808594 1050.890625 C 1739.121094 1044.511719 1794.609375 1024.910156 1815.480469 985.519531 C 1829.441406 959.171875 1830.511719 932.738281 1808.488281 912.890625 C 1777.859375 885.289062 1754.839844 911.339844 1732.070312 913.621094 C 1723.121094 898.859375 1715.769531 864.601562 1677.890625 864.261719 C 1647.371094 863.988281 1627.671875 888.730469 1623.871094 917.558594 C 1618.839844 955.710938 1634.261719 990.898438 1645.550781 1021.570312 C 1647.160156 1025.960938 1647.339844 1026.640625 1648.71875 1029.96875 L 1652.28125 1037.820312 C 1652.570312 1038.441406 1652.949219 1039.210938 1653.261719 1039.851562 C 1659.101562 1052.109375 1667.058594 1068.929688 1670.300781 1077.96875 C 1681.78125 1076 1690.078125 1072.75 1696.980469 1065.46875 "/>
<path fill-rule="evenodd" fill="rgb(73.046875%, 59.959412%, 81.054688%)" fill-opacity="1" d="M 1142.859375 946.359375 C 1153.871094 942.300781 1156.699219 938.980469 1167.878906 937 C 1171.898438 936.289062 1177.140625 935.511719 1181.308594 936.351562 C 1194.929688 939.070312 1187.480469 938.050781 1190.929688 942.480469 C 1208.898438 947.21875 1206.949219 964.671875 1213.878906 972.289062 C 1213.148438 981.808594 1213.988281 971.910156 1214.03125 971.839844 L 1219.191406 963.988281 C 1217.410156 986.320312 1208.210938 1025.949219 1194.011719 1038.738281 L 1168.050781 1085.699219 C 1148.328125 1080.300781 1142.28125 1066.121094 1127.710938 1062.941406 L 1110.960938 1057.148438 C 1107.921875 1051.070312 1102.121094 1046.71875 1096.339844 1041.941406 C 1078.738281 1027.398438 1057.601562 1003.171875 1074.089844 977.648438 C 1076.628906 967.160156 1077.941406 970.78125 1082.710938 960.558594 L 1064.75 962.441406 C 1072.171875 934.96875 1091.03125 937.238281 1113.960938 946.308594 C 1113.210938 946.929688 1112 946.679688 1111.5 947.898438 C 1110.429688 950.5 1101.488281 950.328125 1096.210938 955.421875 C 1105.25 955.53125 1122.601562 954.21875 1124.78125 953.789062 C 1130.109375 952.738281 1140.011719 947.230469 1142.859375 946.359375 Z M 1153.601562 934.230469 C 1157.699219 922.21875 1160.609375 920.398438 1173.640625 919.75 C 1178.980469 919.480469 1191.050781 919.101562 1193.21875 924.351562 C 1199.058594 938.398438 1194.808594 925.019531 1192.710938 931.089844 Z M 1141.308594 927.96875 C 1136.75 934.140625 1132.800781 936.058594 1130.820312 944.390625 C 1122.648438 935.5 1099.039062 931.671875 1082.46875 933.078125 C 1055.269531 936.789062 1046.941406 960.738281 1049.671875 991.238281 C 1055.539062 998.421875 1049.929688 990.890625 1054.738281 1001.050781 C 1057.429688 1006.71875 1057.179688 1007.199219 1061.398438 1013.410156 C 1068.269531 1023.488281 1068.691406 1023.808594 1074.390625 1034.550781 C 1080.128906 1038.929688 1084.238281 1041.769531 1091.121094 1047.25 C 1098.121094 1052.820312 1102.671875 1056.300781 1110.960938 1057.148438 C 1115.578125 1067.300781 1156.960938 1091.261719 1169.898438 1093.480469 L 1180.058594 1080.621094 C 1192.25 1063 1227.230469 994.019531 1229.710938 974.199219 C 1229.609375 951.609375 1228.480469 959.109375 1224.589844 942.648438 C 1213.410156 932.769531 1214.199219 915.078125 1189.191406 910.558594 C 1167.789062 906.691406 1151.910156 914.921875 1141.308594 927.96875 "/>
<path fill-rule="evenodd" fill="rgb(73.046875%, 33.006287%, 76.951599%)" fill-opacity="1" d="M 1657.25 946.121094 L 1650.769531 953.089844 C 1655.800781 969.371094 1682.460938 1012.410156 1692.050781 1020.609375 C 1702.898438 1029.878906 1714.550781 1022.410156 1721.449219 1019.828125 C 1722.25 1019.53125 1722.988281 1019.210938 1723.800781 1018.941406 L 1733.628906 1016.601562 C 1745.78125 1013.441406 1761.160156 1008.351562 1766.710938 997.53125 C 1754.589844 996.339844 1764.578125 997.609375 1759.148438 995.199219 C 1758.609375 994.960938 1757.78125 994.578125 1757.238281 994.300781 C 1756.691406 994.019531 1755.878906 993.589844 1755.339844 993.269531 C 1754.800781 992.949219 1754.019531 992.488281 1753.488281 992.128906 C 1738.960938 982.449219 1757.160156 989.679688 1731.601562 977.910156 C 1728.148438 976.320312 1723.230469 973.460938 1720.46875 971.429688 C 1720.78125 957.910156 1722.199219 956.78125 1733.828125 953.570312 C 1751.128906 945.351562 1761.429688 949.78125 1771.210938 963.121094 C 1773.300781 966.28125 1773.371094 964.800781 1775.121094 971.011719 C 1776.25 975.050781 1775.261719 974.550781 1774.730469 977.941406 C 1772.589844 965.101562 1774.761719 976.078125 1779.230469 971.449219 C 1778.03125 989.660156 1779.609375 990.800781 1772.148438 1005.398438 C 1768.328125 1012.878906 1772.03125 1006.46875 1768.699219 1011.238281 L 1761.328125 1020.960938 C 1760.988281 1021.519531 1760.578125 1022.328125 1760.269531 1022.890625 L 1756.910156 1029.351562 C 1772.011719 1017.871094 1790.21875 1005.289062 1794.238281 984.878906 L 1793.859375 975.800781 C 1792 984.410156 1789.210938 986.75 1786.179688 990.128906 L 1775.890625 959.5 C 1771.878906 951.601562 1766.75 945.699219 1753.910156 945.160156 C 1737.609375 945.851562 1729.621094 943.808594 1720.050781 951.429688 C 1713.539062 938.921875 1721.769531 946.5 1711.648438 940.78125 C 1710.488281 952.988281 1710.101562 957.300781 1716.320312 964.769531 C 1704.269531 965.109375 1686.710938 965.871094 1675.011719 964.550781 C 1663.160156 963.210938 1656.320312 959.171875 1657.25 946.121094 "/>
<path fill-rule="evenodd" fill="rgb(73.046875%, 33.006287%, 76.951599%)" fill-opacity="1" d="M 1385.859375 900.941406 L 1417.800781 924.570312 C 1428.351562 930.949219 1425.511719 930.871094 1434.398438 938.578125 C 1452.660156 954.421875 1462.46875 937.320312 1477.910156 921.78125 C 1505.851562 893.628906 1498.519531 913.921875 1504.230469 892.460938 L 1504.289062 889.921875 L 1464.519531 886.78125 C 1442.558594 883.699219 1467.921875 878.070312 1446.671875 880.820312 L 1447.191406 871.480469 L 1434.988281 869.890625 C 1425.570312 877.441406 1395.75 882.441406 1382.421875 882.050781 L 1383.511719 868.980469 C 1376.109375 880.050781 1378.539062 886.730469 1385.859375 900.941406 "/>
<path fill-rule="evenodd" fill="rgb(76.951599%, 77.929688%, 90.039062%)" fill-opacity="1" d="M 1389.871094 942.628906 C 1384.328125 932.230469 1384.898438 938.988281 1385.390625 927.519531 L 1377.25 920.441406 C 1371.558594 913.519531 1365.070312 898.898438 1361.871094 890.25 C 1350.78125 871.050781 1358.570312 856.269531 1364.71875 836.171875 L 1353.828125 839.011719 C 1356.898438 797.128906 1400.140625 799.660156 1425 818.109375 C 1423.351562 827.53125 1428.820312 822.140625 1419 823.601562 C 1419.5 824.179688 1420.28125 824.878906 1420.648438 825.230469 C 1432.101562 836.019531 1439.871094 838.398438 1443.46875 845.179688 C 1452.359375 828.671875 1456.410156 839.179688 1467.488281 821.25 C 1459.699219 823.019531 1463.878906 826.320312 1458.488281 818.96875 C 1467.289062 820.320312 1474.941406 796.058594 1505.398438 804.449219 C 1523.859375 809.53125 1531.929688 823.671875 1533.851562 846.128906 C 1528.800781 839.800781 1527.101562 841.03125 1520.839844 838.460938 C 1532.300781 861.488281 1527.28125 879.109375 1525.921875 899.648438 C 1543.78125 889.429688 1558.949219 832.398438 1527.460938 806.289062 C 1482.789062 769.261719 1457.488281 819.328125 1440.46875 823.261719 C 1426.789062 810.699219 1416.820312 794 1389.398438 793.21875 C 1365.308594 792.539062 1347.988281 812.46875 1341.898438 828.339844 C 1327.808594 864.988281 1366.46875 926.378906 1389.871094 942.628906 "/>
<path fill-rule="evenodd" fill="rgb(73.046875%, 33.006287%, 76.951599%)" fill-opacity="1" d="M 1096.210938 955.421875 L 1082.710938 960.558594 C 1077.941406 970.78125 1076.628906 967.160156 1074.089844 977.648438 L 1075.769531 977.980469 C 1076.230469 977.089844 1078.238281 973.921875 1078.570312 973.429688 C 1078.878906 972.960938 1080.050781 972.441406 1080.308594 971.089844 C 1080.609375 969.550781 1081.660156 969.328125 1082.320312 968.441406 C 1096.378906 957.371094 1102.769531 955.371094 1120.851562 964.140625 L 1132.339844 969.75 C 1131.070312 987.578125 1125.78125 989.238281 1106.769531 990.671875 C 1102.761719 997.300781 1108.289062 1002.988281 1080.980469 1004.199219 C 1093.980469 1020.941406 1095.328125 1016.609375 1110.398438 1024.410156 L 1124.148438 1034.558594 C 1143.609375 1045.308594 1153.078125 1036.660156 1166.421875 1025.171875 C 1184.511719 1009.578125 1204.96875 988.191406 1202.199219 962.039062 L 1201.441406 979.988281 C 1180.609375 980.921875 1156.589844 979.238281 1139.859375 983.210938 C 1139.859375 958.179688 1135.941406 956.871094 1142.859375 946.359375 C 1140.011719 947.230469 1130.109375 952.738281 1124.78125 953.789062 C 1122.601562 954.21875 1105.25 955.53125 1096.210938 955.421875 "/>
<path fill-rule="evenodd" fill="rgb(4.998779%, 8.006287%, 15.989685%)" fill-opacity="1" d="M 1356.511719 1975.289062 C 1364.769531 1978.949219 1370.308594 1976.714844 1378.929688 1973.992188 C 1375.878906 1991.757812 1370.351562 1996.007812 1375.691406 2014.597656 C 1388.171875 2027.628906 1388.488281 2014.542969 1396.449219 2031.292969 C 1403.929688 2047.011719 1398.449219 2051.898438 1419.660156 2050.851562 C 1427.699219 2034.195312 1438.421875 1993.300781 1425.429688 1976.199219 C 1415.261719 1990.054688 1422.78125 2017.945312 1410.398438 2029.800781 C 1394.121094 2002.699219 1431.699219 1977.710938 1420.339844 1950.699219 C 1419.789062 1950.558594 1418.988281 1950.035156 1418.800781 1949.984375 C 1418.621094 1949.941406 1417.46875 1949.632812 1417.300781 1949.59375 C 1416.96875 1949.523438 1415.339844 1949.664062 1414.441406 1950.003906 C 1411.121094 1963.203125 1399.089844 2002.789062 1389.359375 2008.046875 C 1385.371094 2002.652344 1386.621094 2009.804688 1386.539062 1999.746094 C 1386.53125 1997.773438 1387.941406 1991.839844 1388.429688 1989.769531 C 1394.621094 1963.484375 1405.28125 1942.910156 1405.390625 1927.382812 C 1392.078125 1937.300781 1387.519531 1954.0625 1367.089844 1964.675781 C 1370.238281 1946.144531 1392.050781 1925.355469 1403.210938 1916.289062 L 1405.441406 1908.222656 C 1394.449219 1906.214844 1392.28125 1909.890625 1386.851562 1915.855469 C 1367.828125 1936.730469 1352.351562 1947.0625 1356.511719 1975.289062 "/>
<path fill-rule="evenodd" fill="rgb(76.951599%, 77.929688%, 90.039062%)" fill-opacity="1" d="M 1074.390625 1034.550781 C 1068.691406 1023.808594 1068.269531 1023.488281 1061.398438 1013.410156 C 1057.179688 1007.199219 1057.429688 1006.71875 1054.738281 1001.050781 C 1049.929688 990.890625 1055.539062 998.421875 1049.671875 991.238281 L 1051.25 998.871094 C 1049.871094 978.441406 1042.328125 984.128906 1039.359375 967.988281 C 1030.589844 920.441406 1086.378906 898.828125 1110.128906 930.011719 C 1095.789062 930.621094 1092.53125 926.230469 1082.46875 933.078125 C 1099.039062 931.671875 1122.648438 935.5 1130.820312 944.390625 C 1132.800781 936.058594 1136.75 934.140625 1141.308594 927.96875 C 1133.128906 928.390625 1140.820312 931.648438 1137.070312 926.339844 C 1138.71875 923.519531 1140 921.550781 1141.730469 918.570312 C 1172.621094 865.179688 1221.371094 889.53125 1224.589844 942.648438 C 1228.480469 959.109375 1229.609375 951.609375 1229.710938 974.199219 C 1235.550781 967.148438 1234.820312 965.941406 1235.621094 961.929688 C 1240.261719 938.75 1233.359375 898.871094 1205.148438 884.980469 C 1167.640625 866.511719 1143.050781 893.371094 1127.820312 924.960938 C 1118.03125 924.070312 1059.011719 876.328125 1031.890625 938.449219 C 1022.808594 959.28125 1030.058594 980.109375 1039.128906 997.03125 C 1046.039062 1009.910156 1059.929688 1028.839844 1074.390625 1034.550781 "/>
<path fill-rule="evenodd" fill="rgb(72.068787%, 58.006287%, 76.951599%)" fill-opacity="1" d="M 1364.71875 836.171875 C 1358.570312 856.269531 1350.78125 871.050781 1361.871094 890.25 L 1361.371094 875.898438 C 1362.289062 876.601562 1363.398438 876.78125 1363.839844 878.148438 C 1365.308594 882.710938 1368.019531 881.261719 1371.121094 881.730469 C 1371.320312 881.761719 1372 881.421875 1372.429688 881.238281 C 1374.128906 868.621094 1376.128906 865.339844 1385.519531 853.191406 C 1385.949219 852.640625 1386.578125 851.851562 1386.96875 851.351562 C 1387.371094 850.851562 1388.128906 849.921875 1388.460938 849.511719 C 1388.789062 849.089844 1389.511719 848.308594 1389.980469 847.671875 L 1379.480469 849.890625 C 1373.511719 842.210938 1387.480469 848.390625 1370.949219 854.601562 C 1379.378906 823.578125 1407.390625 820.628906 1425.839844 842.160156 C 1422.519531 845.71875 1426.371094 843.671875 1418.761719 844.71875 C 1426.558594 853.378906 1435.71875 856.058594 1443.46875 863.328125 C 1447.011719 856.078125 1444.949219 861.308594 1447.640625 858.628906 C 1457.351562 848.960938 1447.949219 862.851562 1455.941406 850.191406 C 1453.570312 840.691406 1474.851562 827.851562 1488.589844 829.140625 C 1509.429688 831.101562 1514.53125 844.441406 1515.410156 863.269531 C 1508.398438 856.640625 1512.351562 858.410156 1502.960938 853.148438 C 1510.75 865.539062 1512.289062 874.410156 1515.101562 891.238281 C 1514.730469 884.308594 1518.960938 880.28125 1523.609375 875.589844 C 1521.050781 891.671875 1518.128906 901.921875 1506.648438 913.121094 C 1503.480469 922.269531 1494.390625 932.480469 1486.339844 937.179688 C 1483.910156 943.089844 1481.988281 945.011719 1476.828125 950.671875 C 1469.328125 958.910156 1469.28125 956.140625 1468.089844 965.96875 C 1484.160156 962.308594 1522.261719 913.789062 1525.921875 899.648438 C 1527.28125 879.109375 1532.300781 861.488281 1520.839844 838.460938 C 1492.511719 813.050781 1506.511719 825.539062 1467.488281 821.25 C 1456.410156 839.179688 1452.359375 828.671875 1443.46875 845.179688 C 1439.871094 838.398438 1432.101562 836.019531 1420.648438 825.230469 C 1420.28125 824.878906 1419.5 824.179688 1419 823.601562 C 1383.929688 815.480469 1386.53125 823.078125 1364.71875 836.171875 "/>
<path fill-rule="evenodd" fill="rgb(64.0625%, 80.076599%, 91.014099%)" fill-opacity="1" d="M 1260.078125 1903.492188 C 1260.230469 1910.363281 1263.589844 1912.191406 1268.300781 1918.917969 C 1272.628906 1925.109375 1274.390625 1927.984375 1277.238281 1934.421875 C 1300.078125 1986.113281 1272.148438 1964.082031 1321.929688 1989.273438 C 1417.339844 2037.566406 1395.808594 2121.574219 1410.320312 2143.046875 C 1431.328125 2141.539062 1425.628906 2124.890625 1428.640625 2104.71875 C 1431.390625 2086.355469 1436.730469 2073.59375 1440.261719 2057.859375 C 1424.460938 2067.707031 1419.46875 2105.847656 1417.28125 2124.242188 C 1409.058594 2118.566406 1416.421875 2122.5625 1414.058594 2113.269531 L 1397.148438 2052.410156 C 1402.351562 2060.253906 1411.761719 2055.960938 1419.660156 2050.851562 C 1398.449219 2051.898438 1403.929688 2047.011719 1396.449219 2031.292969 C 1388.488281 2014.542969 1388.171875 2027.628906 1375.691406 2014.597656 C 1370.351562 1996.007812 1375.878906 1991.757812 1378.929688 1973.992188 C 1370.308594 1976.714844 1364.769531 1978.949219 1356.511719 1975.289062 L 1354.851562 1981.53125 C 1364.851562 1987.410156 1366.871094 1985.253906 1367.121094 1998.871094 C 1349.921875 2003.621094 1357.621094 2000.085938 1346.78125 1994.3125 L 1310.878906 1976.414062 C 1301.550781 1972.289062 1307.921875 1977.550781 1301.058594 1970.511719 L 1291.328125 1952.566406 C 1281.191406 1929.089844 1281.339844 1915.558594 1258.960938 1894.972656 L 1260.078125 1903.492188 "/>
<path fill-rule="evenodd" fill="rgb(72.068787%, 58.006287%, 76.951599%)" fill-opacity="1" d="M 1715.671875 936.148438 C 1715 935.519531 1714.191406 933.550781 1713.890625 934.089844 C 1713.449219 934.851562 1711.539062 931.261719 1710.519531 930.050781 C 1703.828125 922.128906 1702.820312 919.648438 1691.621094 918.300781 C 1678.738281 916.761719 1666.28125 921.96875 1659.921875 919.890625 C 1656.191406 912.011719 1652.078125 927.539062 1658.929688 910.710938 C 1662.769531 901.269531 1682.019531 900.300781 1692.300781 902.96875 C 1708.109375 907.058594 1711.210938 920.890625 1715.671875 936.148438 Z M 1634.179688 941.671875 C 1639.75 936.738281 1637.011719 941.601562 1641.878906 932.820312 L 1642.839844 952.191406 C 1645.039062 948.261719 1652.191406 931.449219 1657.261719 929.289062 C 1673.148438 922.511719 1661.601562 925.519531 1666.371094 932.339844 C 1690.25 921.921875 1688.628906 930.339844 1704.261719 937.710938 L 1711.648438 940.78125 C 1721.769531 946.5 1713.539062 938.921875 1720.050781 951.429688 C 1729.621094 943.808594 1737.609375 945.851562 1753.910156 945.160156 C 1748.988281 941.628906 1750.320312 941.308594 1737.820312 941.328125 C 1739.019531 940.359375 1740.449219 938.570312 1744.488281 936.238281 C 1748.558594 933.890625 1746.808594 934.070312 1753.289062 932.449219 C 1763.648438 929.871094 1765.179688 929.78125 1774.949219 934.710938 C 1786.109375 940.339844 1793.238281 952.171875 1789.191406 963.28125 C 1781.449219 962.398438 1781.289062 962.078125 1775.890625 959.5 L 1786.179688 990.128906 C 1789.210938 986.75 1792 984.410156 1793.859375 975.800781 L 1794.238281 984.878906 C 1799.28125 979.871094 1794.929688 987.488281 1799.070312 978.808594 C 1801.171875 974.429688 1801.460938 973.46875 1801.71875 968.53125 C 1802.101562 961.191406 1799.398438 953.210938 1798.28125 945.601562 C 1790.160156 936.621094 1785.101562 927.191406 1771.058594 925.398438 C 1745.148438 921.140625 1744.871094 928.558594 1724.691406 931.941406 L 1717.308594 915.710938 C 1708.398438 900.078125 1696.25 892.75 1672.191406 892.730469 C 1671.550781 893.210938 1670.480469 892.96875 1670.140625 893.949219 C 1668.480469 898.808594 1637.300781 899.421875 1634.179688 941.671875 "/>
<path fill-rule="evenodd" fill="rgb(7.006836%, 9.008789%, 19.993591%)" fill-opacity="1" d="M 1305.710938 1810.171875 C 1309.570312 1833.140625 1411.96875 1827.328125 1431.449219 1826.960938 C 1456.179688 1826.480469 1524.890625 1820.949219 1546.738281 1808.261719 C 1550.890625 1805.851562 1549.828125 1806.359375 1552.101562 1804.160156 C 1540.578125 1797.589844 1455.371094 1812.421875 1431.449219 1813.46875 C 1409.050781 1814.460938 1387.570312 1814.261719 1365.191406 1813.648438 C 1344.851562 1813.101562 1318.539062 1802.140625 1305.710938 1810.171875 "/>
<path fill-rule="evenodd" fill="rgb(84.959412%, 93.943787%, 96.09375%)" fill-opacity="1" d="M 1191.730469 1530.589844 C 1203.539062 1493.550781 1150.460938 1457.269531 1137.421875 1501.558594 C 1123.199219 1549.871094 1178.808594 1571.148438 1191.730469 1530.589844 "/>
<path fill-rule="evenodd" fill="rgb(84.959412%, 93.943787%, 96.09375%)" fill-opacity="1" d="M 1658.859375 1465.699219 C 1618.800781 1490.480469 1639.511719 1547.539062 1677.550781 1527.351562 C 1712.339844 1508.890625 1693.421875 1444.308594 1658.859375 1465.699219 "/>
<path fill-rule="evenodd" fill="rgb(71.09375%, 30.004883%, 68.943787%)" fill-opacity="1" d="M 1193.660156 950.628906 C 1202.308594 957.011719 1195.851562 942.898438 1202.199219 962.039062 C 1204.96875 988.191406 1184.511719 1009.578125 1166.421875 1025.171875 C 1153.078125 1036.660156 1143.609375 1045.308594 1124.148438 1034.558594 L 1110.398438 1024.410156 C 1095.328125 1016.609375 1093.980469 1020.941406 1080.980469 1004.199219 C 1079.328125 994.890625 1076.230469 993.738281 1075.769531 977.980469 L 1074.089844 977.648438 C 1057.601562 1003.171875 1078.738281 1027.398438 1096.339844 1041.941406 C 1102.121094 1046.71875 1107.921875 1051.070312 1110.960938 1057.148438 L 1127.710938 1062.941406 C 1123.75 1056.488281 1128.46875 1061.710938 1121.558594 1056.28125 C 1121.078125 1055.898438 1120.308594 1055.421875 1119.800781 1055.050781 C 1114.78125 1051.480469 1111.648438 1051.390625 1105.679688 1044.671875 L 1099.128906 1035.648438 C 1147.070312 1036.921875 1139.769531 1075.671875 1174.328125 1030.140625 C 1176.308594 1027.53125 1181.949219 1020.019531 1183.699219 1018.46875 C 1191.921875 1011.25 1191.238281 1012.550781 1202.960938 1010.53125 L 1194.011719 1038.738281 C 1208.210938 1025.949219 1217.410156 986.320312 1219.191406 963.988281 L 1214.03125 971.839844 C 1213.988281 971.910156 1213.148438 981.808594 1213.878906 972.289062 C 1206.949219 964.671875 1208.898438 947.21875 1190.929688 942.480469 L 1189.71875 945.058594 L 1193.660156 950.628906 "/>
<path fill-rule="evenodd" fill="rgb(71.09375%, 30.004883%, 68.943787%)" fill-opacity="1" d="M 1634.179688 941.671875 C 1638.328125 967.03125 1637.019531 983.429688 1647.640625 1007.601562 C 1651.769531 1016.988281 1652.601562 1018.699219 1657.5 1023.851562 L 1650.429688 998.128906 C 1650.859375 983.410156 1650.46875 991.941406 1653.910156 986.480469 C 1665.539062 994.308594 1667.140625 1002.910156 1683.539062 1023.289062 C 1687.398438 1028.089844 1688 1030.160156 1689.980469 1034.890625 C 1723.570312 1035.179688 1720.269531 1023.289062 1748.871094 1020.820312 C 1746.78125 1026.539062 1747.230469 1026.808594 1744.300781 1033.710938 L 1756.910156 1029.351562 L 1760.269531 1022.890625 C 1760.578125 1022.328125 1760.988281 1021.519531 1761.328125 1020.960938 L 1768.699219 1011.238281 C 1772.03125 1006.46875 1768.328125 1012.878906 1772.148438 1005.398438 C 1779.609375 990.800781 1778.03125 989.660156 1779.230469 971.449219 C 1774.761719 976.078125 1772.589844 965.101562 1774.730469 977.941406 L 1766.710938 997.53125 C 1761.160156 1008.351562 1745.78125 1013.441406 1733.628906 1016.601562 L 1723.800781 1018.941406 C 1722.988281 1019.210938 1722.25 1019.53125 1721.449219 1019.828125 C 1714.550781 1022.410156 1702.898438 1029.878906 1692.050781 1020.609375 C 1682.460938 1012.410156 1655.800781 969.371094 1650.769531 953.089844 L 1657.25 946.121094 C 1658.648438 937.871094 1657 941.609375 1660.378906 935.300781 C 1664.078125 928.410156 1658.230469 934.710938 1665.511719 930.230469 L 1666.371094 932.339844 C 1661.601562 925.519531 1673.148438 922.511719 1657.261719 929.289062 C 1652.191406 931.449219 1645.039062 948.261719 1642.839844 952.191406 L 1641.878906 932.820312 C 1637.011719 941.601562 1639.75 936.738281 1634.179688 941.671875 "/>
<path fill-rule="evenodd" fill="rgb(68.943787%, 15.989685%, 55.076599%)" fill-opacity="1" d="M 1127.710938 1062.941406 C 1142.28125 1066.121094 1148.328125 1080.300781 1168.050781 1085.699219 L 1194.011719 1038.738281 L 1202.960938 1010.53125 C 1191.238281 1012.550781 1191.921875 1011.25 1183.699219 1018.46875 C 1181.949219 1020.019531 1176.308594 1027.53125 1174.328125 1030.140625 C 1139.769531 1075.671875 1147.070312 1036.921875 1099.128906 1035.648438 L 1105.679688 1044.671875 C 1111.648438 1051.390625 1114.78125 1051.480469 1119.800781 1055.050781 C 1120.308594 1055.421875 1121.078125 1055.898438 1121.558594 1056.28125 C 1128.46875 1061.710938 1123.75 1056.488281 1127.710938 1062.941406 "/>
<path fill-rule="evenodd" fill="rgb(68.943787%, 15.989685%, 55.076599%)" fill-opacity="1" d="M 1657.5 1023.851562 L 1658.019531 1028.421875 C 1671.769531 1034.429688 1663.300781 1041 1671.539062 1052.5 C 1675.609375 1058.179688 1673.019531 1054.050781 1678.308594 1059.609375 L 1703.148438 1052.621094 C 1711.058594 1054.398438 1717.058594 1047.46875 1723.109375 1044.289062 C 1732.089844 1039.589844 1736.808594 1039.78125 1744.300781 1033.710938 C 1747.230469 1026.808594 1746.78125 1026.539062 1748.871094 1020.820312 C 1720.269531 1023.289062 1723.570312 1035.179688 1689.980469 1034.890625 C 1688 1030.160156 1687.398438 1028.089844 1683.539062 1023.289062 C 1667.140625 1002.910156 1665.539062 994.308594 1653.910156 986.480469 C 1650.46875 991.941406 1650.859375 983.410156 1650.429688 998.128906 L 1657.5 1023.851562 "/>
<path fill-rule="evenodd" fill="rgb(46.99707%, 53.90625%, 71.09375%)" fill-opacity="1" d="M 1344.828125 1418.929688 C 1340.421875 1423.039062 1343.800781 1418.601562 1340.300781 1424.410156 C 1333.171875 1436.25 1345.269531 1411.390625 1338.199219 1428.589844 C 1335.960938 1434.039062 1336.109375 1435.808594 1335.050781 1441.78125 C 1362.429688 1435.03125 1385.949219 1421.960938 1416.359375 1420.109375 C 1460.46875 1417.429688 1472.808594 1428.429688 1503.578125 1440.71875 L 1501.160156 1427.609375 C 1484.089844 1426.519531 1465.339844 1406.390625 1425.210938 1405.089844 C 1383.351562 1403.738281 1375.46875 1414.121094 1347.269531 1425.398438 C 1343.578125 1422.210938 1343.269531 1430.441406 1344.828125 1418.929688 "/>
<path fill-rule="evenodd" fill="rgb(61.914062%, 42.993164%, 69.921875%)" fill-opacity="1" d="M 1389.980469 847.671875 C 1389.511719 848.308594 1388.789062 849.089844 1388.460938 849.511719 C 1388.128906 849.921875 1387.371094 850.851562 1386.96875 851.351562 C 1386.578125 851.851562 1385.949219 852.640625 1385.519531 853.191406 C 1376.128906 865.339844 1374.128906 868.621094 1372.429688 881.238281 C 1372 881.421875 1371.320312 881.761719 1371.121094 881.730469 C 1368.019531 881.261719 1365.308594 882.710938 1363.839844 878.148438 C 1363.398438 876.78125 1362.289062 876.601562 1361.371094 875.898438 L 1361.871094 890.25 C 1365.070312 898.898438 1371.558594 913.519531 1377.25 920.441406 L 1385.390625 927.519531 C 1383.941406 914.070312 1376.878906 907.730469 1375.699219 888.621094 L 1385.859375 900.941406 C 1378.539062 886.730469 1376.109375 880.050781 1383.511719 868.980469 C 1388.75 853.378906 1383.558594 864.78125 1390.761719 859.53125 C 1399.980469 850.898438 1411.039062 845.199219 1423.578125 857.671875 C 1434.109375 863.148438 1428.648438 856.96875 1434.988281 869.890625 L 1447.191406 871.480469 C 1448.230469 870.21875 1450.160156 867.269531 1450.460938 866.921875 C 1450.871094 866.429688 1453.691406 864.589844 1454.03125 863.230469 C 1454.351562 861.921875 1455.378906 861.871094 1456.089844 861.230469 C 1468.21875 852.289062 1479.5 840.929688 1496.449219 860.300781 C 1509.289062 869.660156 1507 873.179688 1504.289062 889.921875 L 1504.230469 892.460938 C 1506.519531 896.148438 1505.988281 892.800781 1506.851562 899.648438 C 1507.460938 904.601562 1506.980469 908 1506.648438 913.121094 C 1518.128906 901.921875 1521.050781 891.671875 1523.609375 875.589844 C 1518.960938 880.28125 1514.730469 884.308594 1515.101562 891.238281 C 1512.289062 874.410156 1510.75 865.539062 1502.960938 853.148438 C 1489.28125 841.421875 1473.769531 839.308594 1455.941406 850.191406 C 1447.949219 862.851562 1457.351562 848.960938 1447.640625 858.628906 C 1444.949219 861.308594 1447.011719 856.078125 1443.46875 863.328125 C 1435.71875 856.058594 1426.558594 853.378906 1418.761719 844.71875 C 1405.789062 842.628906 1401.03125 841.820312 1389.980469 847.671875 "/>
<path fill-rule="evenodd" fill="rgb(72.068787%, 21.99707%, 65.039062%)" fill-opacity="1" d="M 1385.390625 927.519531 L 1388.769531 929.941406 C 1400.5 941.519531 1391.539062 937.101562 1403.089844 943.699219 C 1402.269531 924.519531 1401.738281 938.519531 1407.398438 933.371094 C 1422.570312 940.730469 1441.910156 963.570312 1458.5 954.519531 C 1464.261719 947.378906 1485.050781 926.71875 1493.558594 923.601562 C 1488.671875 931.230469 1489.660156 926.820312 1486.339844 937.179688 C 1494.390625 932.480469 1503.480469 922.269531 1506.648438 913.121094 C 1506.980469 908 1507.460938 904.601562 1506.851562 899.648438 C 1505.988281 892.800781 1506.519531 896.148438 1504.230469 892.460938 C 1498.519531 913.921875 1505.851562 893.628906 1477.910156 921.78125 C 1462.46875 937.320312 1452.660156 954.421875 1434.398438 938.578125 C 1425.511719 930.871094 1428.351562 930.949219 1417.800781 924.570312 L 1385.859375 900.941406 L 1375.699219 888.621094 C 1376.878906 907.730469 1383.941406 914.070312 1385.390625 927.519531 "/>
<path fill-rule="evenodd" fill="rgb(7.006836%, 9.008789%, 19.993591%)" fill-opacity="1" d="M 1335.050781 1441.78125 C 1327.089844 1446.671875 1327.289062 1443.78125 1323.429688 1452.199219 C 1343.71875 1452.410156 1359.851562 1435.070312 1416.410156 1434.53125 C 1470.558594 1434.019531 1479.121094 1445.28125 1508.980469 1451.519531 C 1506.410156 1440.199219 1506.019531 1447.808594 1503.578125 1440.71875 C 1472.808594 1428.429688 1460.46875 1417.429688 1416.359375 1420.109375 C 1385.949219 1421.960938 1362.429688 1435.03125 1335.050781 1441.78125 "/>
<path fill-rule="evenodd" fill="rgb(46.99707%, 53.90625%, 71.09375%)" fill-opacity="1" d="M 1846.078125 1720.449219 C 1868.421875 1717.199219 1891.699219 1704.308594 1909.148438 1695.488281 C 1917.300781 1691.378906 1950 1672.578125 1957.429688 1665.898438 C 1964.371094 1659.671875 1960.199219 1663.800781 1963.890625 1658.890625 C 1943.328125 1660 1915.199219 1673.929688 1896.929688 1680.601562 C 1869.988281 1690.429688 1852 1689.359375 1846.078125 1720.449219 "/>
<path fill-rule="evenodd" fill="rgb(46.99707%, 53.90625%, 71.09375%)" fill-opacity="1" d="M 1188.488281 2118.90625 L 1177.890625 2128.066406 C 1162.589844 2141.605469 1076.710938 2134.390625 1076.710938 2134.390625 C 1066.269531 2121.839844 1065.480469 2096.496094 1068.421875 2075.34375 C 1070.269531 2061.964844 1082 2037.640625 1078.410156 2024.261719 C 1067.910156 2033.585938 1063.511719 2064.921875 1061.519531 2077.402344 C 1048.269531 2160.472656 1061.769531 2144.320312 1190.789062 2139.148438 L 1188.488281 2118.90625 "/>
<path fill-rule="evenodd" fill="rgb(7.006836%, 9.008789%, 19.993591%)" fill-opacity="1" d="M 1344.828125 1418.929688 C 1343.269531 1430.441406 1343.578125 1422.210938 1347.269531 1425.398438 C 1375.46875 1414.121094 1383.351562 1403.738281 1425.210938 1405.089844 C 1465.339844 1406.390625 1484.089844 1426.519531 1501.160156 1427.609375 C 1497.609375 1403.410156 1449.191406 1393.121094 1425.449219 1392.570312 C 1408.710938 1392.191406 1393.191406 1394.339844 1378.550781 1399.410156 C 1361.839844 1405.199219 1355.800781 1412.71875 1344.828125 1418.929688 "/>
<path fill-rule="evenodd" fill="rgb(47.996521%, 52.929688%, 65.039062%)" fill-opacity="1" d="M 995.027344 1734.128906 C 993.660156 1714.628906 958.90625 1700.648438 934.453125 1687.910156 C 919.425781 1680.078125 876.054688 1654.589844 863.675781 1651.640625 C 866.753906 1660.699219 868.488281 1659.089844 876.5625 1664.578125 C 906.460938 1684.890625 960.410156 1725.328125 995.027344 1734.128906 "/>
<path fill-rule="evenodd" fill="rgb(66.992188%, 12.988281%, 45.996094%)" fill-opacity="1" d="M 1403.089844 943.699219 C 1411.148438 953.738281 1429.359375 977.148438 1443.46875 983.851562 C 1447.609375 980.550781 1450.480469 978.261719 1455.03125 973.820312 C 1465.738281 963.378906 1456.960938 967.691406 1468.089844 965.96875 C 1469.28125 956.140625 1469.328125 958.910156 1476.828125 950.671875 C 1481.988281 945.011719 1483.910156 943.089844 1486.339844 937.179688 C 1489.660156 926.820312 1488.671875 931.230469 1493.558594 923.601562 C 1485.050781 926.71875 1464.261719 947.378906 1458.5 954.519531 C 1441.910156 963.570312 1422.570312 940.730469 1407.398438 933.371094 C 1401.738281 938.519531 1402.269531 924.519531 1403.089844 943.699219 "/>
<path fill-rule="evenodd" fill="rgb(83.984375%, 83.984375%, 97.068787%)" fill-opacity="1" d="M 1141.308594 927.96875 C 1151.910156 914.921875 1167.789062 906.691406 1189.191406 910.558594 C 1214.199219 915.078125 1213.410156 932.769531 1224.589844 942.648438 C 1221.371094 889.53125 1172.621094 865.179688 1141.730469 918.570312 C 1140 921.550781 1138.71875 923.519531 1137.070312 926.339844 C 1140.820312 931.648438 1133.128906 928.390625 1141.308594 927.96875 "/>
<path fill-rule="evenodd" fill="rgb(84.959412%, 91.014099%, 96.09375%)" fill-opacity="1" d="M 1049.671875 991.238281 C 1046.941406 960.738281 1055.269531 936.789062 1082.46875 933.078125 C 1092.53125 926.230469 1095.789062 930.621094 1110.128906 930.011719 C 1086.378906 898.828125 1030.589844 920.441406 1039.359375 967.988281 C 1042.328125 984.128906 1049.871094 978.441406 1051.25 998.871094 L 1049.671875 991.238281 "/>
<path fill-rule="evenodd" fill="rgb(73.046875%, 41.992188%, 78.90625%)" fill-opacity="1" d="M 1142.859375 946.359375 C 1135.941406 956.871094 1139.859375 958.179688 1139.859375 983.210938 C 1156.589844 979.238281 1180.609375 980.921875 1201.441406 979.988281 L 1202.199219 962.039062 C 1195.851562 942.898438 1202.308594 957.011719 1193.660156 950.628906 C 1193.089844 968.5 1192.558594 965.460938 1172.988281 965.851562 C 1160.761719 966.101562 1155.710938 967.859375 1146.25 968.011719 C 1152.140625 941.558594 1162.230469 937.519531 1189.71875 945.058594 L 1190.929688 942.480469 C 1187.480469 938.050781 1194.929688 939.070312 1181.308594 936.351562 C 1177.140625 935.511719 1171.898438 936.289062 1167.878906 937 C 1156.699219 938.980469 1153.871094 942.300781 1142.859375 946.359375 "/>
<path fill-rule="evenodd" fill="rgb(64.0625%, 80.076599%, 91.014099%)" fill-opacity="1" d="M 1414.441406 1950.003906 C 1410.980469 1944.027344 1407.691406 1924.777344 1407.378906 1924.136719 C 1411.871094 1906.578125 1408.390625 1921.792969 1403.210938 1916.289062 C 1392.050781 1925.355469 1370.238281 1946.144531 1367.089844 1964.675781 C 1387.519531 1954.0625 1392.078125 1937.300781 1405.390625 1927.382812 C 1405.28125 1942.910156 1394.621094 1963.484375 1388.429688 1989.769531 C 1387.941406 1991.839844 1386.53125 1997.773438 1386.539062 1999.746094 C 1386.621094 2009.804688 1385.371094 2002.652344 1389.359375 2008.046875 C 1399.089844 2002.789062 1411.121094 1963.203125 1414.441406 1950.003906 "/>
<path fill-rule="evenodd" fill="rgb(46.99707%, 53.90625%, 71.09375%)" fill-opacity="1" d="M 1421.308594 1169.589844 C 1414.460938 1162.980469 1431.488281 1166.519531 1412.898438 1163.851562 C 1423.089844 1167.640625 1428.328125 1161.148438 1433.929688 1157.859375 C 1438.699219 1155.058594 1435.21875 1158.03125 1440.058594 1154.539062 C 1443.941406 1151.730469 1446.078125 1162.039062 1444.328125 1147.828125 C 1454.628906 1154.601562 1459.121094 1153.039062 1461.5 1153.460938 C 1454.710938 1136.101562 1436.859375 1123.039062 1418.96875 1118.308594 C 1422.648438 1135.128906 1431.21875 1138.121094 1438.871094 1152.578125 C 1409.179688 1147.878906 1400.628906 1148.550781 1377.101562 1160.820312 C 1384.191406 1167.238281 1410.410156 1168.660156 1421.308594 1169.589844 "/>
<path fill-rule="evenodd" fill="rgb(46.99707%, 53.90625%, 71.09375%)" fill-opacity="1" d="M 1611.878906 1277.078125 C 1613.378906 1283.449219 1612.308594 1282.75 1615.390625 1287.089844 C 1610.410156 1296.839844 1611.070312 1290.390625 1607.199219 1302.191406 C 1624.878906 1293.988281 1629.039062 1281.730469 1653.460938 1275.25 C 1680.429688 1268.101562 1689.96875 1277.859375 1710.671875 1283.390625 C 1705.089844 1269.191406 1684.941406 1260.421875 1666.011719 1259.328125 C 1630.699219 1257.300781 1634.851562 1276.921875 1611.878906 1277.078125 "/>
<path fill-rule="evenodd" fill="rgb(84.959412%, 91.014099%, 96.09375%)" fill-opacity="1" d="M 1467.488281 821.25 C 1506.511719 825.539062 1492.511719 813.050781 1520.839844 838.460938 C 1527.101562 841.03125 1528.800781 839.800781 1533.851562 846.128906 C 1531.929688 823.671875 1523.859375 809.53125 1505.398438 804.449219 C 1474.941406 796.058594 1467.289062 820.320312 1458.488281 818.96875 C 1463.878906 826.320312 1459.699219 823.019531 1467.488281 821.25 "/>
<path fill-rule="evenodd" fill="rgb(84.959412%, 91.014099%, 96.09375%)" fill-opacity="1" d="M 1771.058594 925.398438 C 1785.101562 927.191406 1790.160156 936.621094 1798.28125 945.601562 L 1800.960938 950 C 1802.171875 952.140625 1803.210938 954.238281 1804.410156 956.300781 C 1811.191406 967.96875 1803.429688 961.019531 1811.429688 965.300781 C 1817.730469 942.691406 1813.558594 929.71875 1798.148438 917.601562 C 1780.28125 903.53125 1768.328125 910.300781 1750.789062 917.320312 C 1756.351562 922.339844 1761.488281 917.25 1771.058594 925.398438 "/>
<path fill-rule="evenodd" fill="rgb(47.996521%, 52.929688%, 65.039062%)" fill-opacity="1" d="M 1136.320312 1277.960938 L 1117.609375 1290.089844 C 1118.730469 1290.808594 1116.878906 1291.621094 1124.578125 1291.46875 C 1139.390625 1289.121094 1148.878906 1282.21875 1169.46875 1285.230469 C 1181.109375 1286.941406 1199.601562 1294.570312 1204.140625 1305.800781 L 1212.308594 1309.121094 C 1215.058594 1299.050781 1211.25 1306.179688 1212.109375 1294.460938 L 1214.078125 1286.078125 C 1214.179688 1285.351562 1214.449219 1284.421875 1214.5 1283.699219 L 1213.488281 1276.949219 C 1209.488281 1287.28125 1213.328125 1280.558594 1208.980469 1284.878906 C 1187.078125 1282.769531 1166.671875 1261.578125 1136.320312 1277.960938 "/>
<path fill-rule="evenodd" fill="rgb(74.021912%, 53.90625%, 82.03125%)" fill-opacity="1" d="M 1456.089844 861.230469 C 1455.378906 861.871094 1454.351562 861.921875 1454.03125 863.230469 C 1453.691406 864.589844 1450.871094 866.429688 1450.460938 866.921875 C 1450.160156 867.269531 1448.230469 870.21875 1447.191406 871.480469 L 1446.671875 880.820312 C 1467.921875 878.070312 1442.558594 883.699219 1464.519531 886.78125 L 1504.289062 889.921875 C 1507 873.179688 1509.289062 869.660156 1496.449219 860.300781 L 1498.671875 869.851562 C 1487.070312 869.980469 1485.949219 868.761719 1476.179688 868 C 1450.5 866 1458.550781 867.679688 1456.089844 861.230469 "/>
<path fill-rule="evenodd" fill="rgb(84.959412%, 91.014099%, 96.09375%)" fill-opacity="1" d="M 1672.191406 892.730469 C 1696.25 892.75 1708.398438 900.078125 1717.308594 915.710938 C 1733.101562 888.621094 1653.058594 846.980469 1653.328125 894.859375 L 1672.191406 892.730469 "/>
<path fill-rule="evenodd" fill="rgb(74.021912%, 53.90625%, 82.03125%)" fill-opacity="1" d="M 1657.25 946.121094 C 1656.320312 959.171875 1663.160156 963.210938 1675.011719 964.550781 C 1686.710938 965.871094 1704.269531 965.109375 1716.320312 964.769531 C 1710.101562 957.300781 1710.488281 952.988281 1711.648438 940.78125 L 1704.261719 937.710938 L 1706.171875 948.808594 C 1695.96875 948.511719 1689.320312 948.390625 1679.5 945.820312 C 1669.421875 943.179688 1664.550781 941.410156 1665.511719 930.230469 C 1658.230469 934.710938 1664.078125 928.410156 1660.378906 935.300781 C 1657 941.609375 1658.648438 937.871094 1657.25 946.121094 "/>
<path fill-rule="evenodd" fill="rgb(84.959412%, 91.014099%, 96.09375%)" fill-opacity="1" d="M 1364.71875 836.171875 C 1386.53125 823.078125 1383.929688 815.480469 1419 823.601562 C 1428.820312 822.140625 1423.351562 827.53125 1425 818.109375 C 1400.140625 799.660156 1356.898438 797.128906 1353.828125 839.011719 L 1364.71875 836.171875 "/>
<path fill-rule="evenodd" fill="rgb(74.021912%, 53.90625%, 82.03125%)" fill-opacity="1" d="M 1082.320312 968.441406 C 1081.660156 969.328125 1080.609375 969.550781 1080.308594 971.089844 C 1080.050781 972.441406 1078.878906 972.960938 1078.570312 973.429688 C 1078.238281 973.921875 1076.230469 977.089844 1075.769531 977.980469 C 1076.230469 993.738281 1079.328125 994.890625 1080.980469 1004.199219 C 1108.289062 1002.988281 1102.761719 997.300781 1106.769531 990.671875 C 1125.78125 989.238281 1131.070312 987.578125 1132.339844 969.75 L 1120.851562 964.140625 C 1117.5 976.648438 1121.808594 969.710938 1113.148438 974.988281 C 1112.828125 975.179688 1100.910156 980.191406 1100.421875 980.378906 C 1087.449219 985.441406 1081.570312 986.210938 1082.320312 968.441406 "/>
<path fill-rule="evenodd" fill="rgb(74.021912%, 53.90625%, 82.03125%)" fill-opacity="1" d="M 1766.710938 997.53125 L 1774.730469 977.941406 C 1775.261719 974.550781 1776.25 975.050781 1775.121094 971.011719 C 1773.371094 964.800781 1773.300781 966.28125 1771.210938 963.121094 L 1771.191406 978.378906 C 1759.929688 975.960938 1742.269531 969.089844 1736.730469 963.609375 C 1732.488281 959.410156 1731.480469 960.179688 1733.828125 953.570312 C 1722.199219 956.78125 1720.78125 957.910156 1720.46875 971.429688 C 1723.230469 973.460938 1728.148438 976.320312 1731.601562 977.910156 C 1757.160156 989.679688 1738.960938 982.449219 1753.488281 992.128906 C 1754.019531 992.488281 1754.800781 992.949219 1755.339844 993.269531 C 1755.878906 993.589844 1756.691406 994.019531 1757.238281 994.300781 C 1757.78125 994.578125 1758.609375 994.960938 1759.148438 995.199219 C 1764.578125 997.609375 1754.589844 996.339844 1766.710938 997.53125 "/>
<path fill-rule="evenodd" fill="rgb(77.929688%, 68.943787%, 91.014099%)" fill-opacity="1" d="M 1193.660156 950.628906 L 1189.71875 945.058594 C 1162.230469 937.519531 1152.140625 941.558594 1146.25 968.011719 C 1155.710938 967.859375 1160.761719 966.101562 1172.988281 965.851562 C 1192.558594 965.460938 1193.089844 968.5 1193.660156 950.628906 "/>
<path fill-rule="evenodd" fill="rgb(72.068787%, 59.959412%, 75.976562%)" fill-opacity="1" d="M 1389.871094 942.628906 C 1395.769531 950.378906 1407.101562 960.589844 1415 969.820312 C 1424.570312 981.019531 1433.351562 989.289062 1443.46875 997.070312 C 1449.691406 990.429688 1466.550781 977.679688 1468.089844 965.96875 C 1456.960938 967.691406 1465.738281 963.378906 1455.03125 973.820312 C 1450.480469 978.261719 1447.609375 980.550781 1443.46875 983.851562 C 1429.359375 977.148438 1411.148438 953.738281 1403.089844 943.699219 C 1391.539062 937.101562 1400.5 941.519531 1388.769531 929.941406 L 1385.390625 927.519531 C 1384.898438 938.988281 1384.328125 932.230469 1389.871094 942.628906 "/>
<path fill-rule="evenodd" fill="rgb(77.929688%, 68.943787%, 91.014099%)" fill-opacity="1" d="M 1691.621094 918.300781 C 1702.820312 919.648438 1703.828125 922.128906 1710.519531 930.050781 C 1711.539062 931.261719 1713.449219 934.851562 1713.890625 934.089844 C 1714.191406 933.550781 1715 935.519531 1715.671875 936.148438 C 1711.210938 920.890625 1708.109375 907.058594 1692.300781 902.96875 C 1682.019531 900.300781 1662.769531 901.269531 1658.929688 910.710938 C 1652.078125 927.539062 1656.191406 912.011719 1659.921875 919.890625 C 1666.28125 921.96875 1678.738281 916.761719 1691.621094 918.300781 "/>
<path fill-rule="evenodd" fill="rgb(82.03125%, 77.929688%, 96.09375%)" fill-opacity="1" d="M 1455.941406 850.191406 C 1473.769531 839.308594 1489.28125 841.421875 1502.960938 853.148438 C 1512.351562 858.410156 1508.398438 856.640625 1515.410156 863.269531 C 1514.53125 844.441406 1509.429688 831.101562 1488.589844 829.140625 C 1474.851562 827.851562 1453.570312 840.691406 1455.941406 850.191406 "/>
<path fill-rule="evenodd" fill="rgb(82.03125%, 77.929688%, 96.09375%)" fill-opacity="1" d="M 1753.910156 945.160156 C 1766.75 945.699219 1771.878906 951.601562 1775.890625 959.5 C 1781.289062 962.078125 1781.449219 962.398438 1789.191406 963.28125 C 1793.238281 952.171875 1786.109375 940.339844 1774.949219 934.710938 C 1765.179688 929.78125 1763.648438 929.871094 1753.289062 932.449219 C 1746.808594 934.070312 1748.558594 933.890625 1744.488281 936.238281 C 1740.449219 938.570312 1739.019531 940.359375 1737.820312 941.328125 C 1750.320312 941.308594 1748.988281 941.628906 1753.910156 945.160156 "/>
<path fill-rule="evenodd" fill="rgb(82.03125%, 77.929688%, 96.09375%)" fill-opacity="1" d="M 1733.828125 953.570312 C 1731.480469 960.179688 1732.488281 959.410156 1736.730469 963.609375 C 1742.269531 969.089844 1759.929688 975.960938 1771.191406 978.378906 L 1771.210938 963.121094 C 1761.429688 949.78125 1751.128906 945.351562 1733.828125 953.570312 "/>
<path fill-rule="evenodd" fill="rgb(75.976562%, 58.006287%, 88.084412%)" fill-opacity="1" d="M 1390.761719 859.53125 C 1383.558594 864.78125 1388.75 853.378906 1383.511719 868.980469 L 1382.421875 882.050781 C 1395.75 882.441406 1425.570312 877.441406 1434.988281 869.890625 C 1428.648438 856.96875 1434.109375 863.148438 1423.578125 857.671875 C 1424.320312 865.550781 1425.550781 860.121094 1422.429688 864.550781 L 1390.28125 867.660156 L 1390.761719 859.53125 "/>
<path fill-rule="evenodd" fill="rgb(82.03125%, 77.929688%, 96.09375%)" fill-opacity="1" d="M 1389.980469 847.671875 C 1401.03125 841.820312 1405.789062 842.628906 1418.761719 844.71875 C 1426.371094 843.671875 1422.519531 845.71875 1425.839844 842.160156 C 1407.390625 820.628906 1379.378906 823.578125 1370.949219 854.601562 C 1387.480469 848.390625 1373.511719 842.210938 1379.480469 849.890625 L 1389.980469 847.671875 "/>
<path fill-rule="evenodd" fill="rgb(82.03125%, 77.929688%, 96.09375%)" fill-opacity="1" d="M 1082.320312 968.441406 C 1081.570312 986.210938 1087.449219 985.441406 1100.421875 980.378906 C 1100.910156 980.191406 1112.828125 975.179688 1113.148438 974.988281 C 1121.808594 969.710938 1117.5 976.648438 1120.851562 964.140625 C 1102.769531 955.371094 1096.378906 957.371094 1082.320312 968.441406 "/>
<path fill-rule="evenodd" fill="rgb(7.006836%, 9.008789%, 19.993591%)" fill-opacity="1" d="M 1192.980469 1313.039062 C 1196.78125 1320.828125 1193.679688 1316.710938 1199.808594 1323.460938 C 1203.378906 1327.410156 1203.5 1326.519531 1207.261719 1330.828125 C 1213.328125 1337.789062 1215.761719 1341.328125 1216.53125 1350.21875 C 1219.390625 1352.839844 1222.019531 1352.121094 1225.199219 1354.628906 C 1224.570312 1326.609375 1225.378906 1336.300781 1214.75 1314.738281 C 1212.460938 1310.121094 1213.851562 1313.070312 1212.308594 1309.121094 L 1204.140625 1305.800781 L 1203.910156 1310.640625 L 1192.980469 1313.039062 "/>
<path fill-rule="evenodd" fill="rgb(46.99707%, 53.90625%, 71.09375%)" fill-opacity="1" d="M 1213.488281 1276.949219 L 1206.578125 1253.101562 L 1231.878906 1238.429688 C 1240.5 1232.46875 1236.988281 1238.871094 1239.378906 1228.371094 C 1227.078125 1231.570312 1195.230469 1246.410156 1189.03125 1257.019531 C 1194.488281 1264.550781 1206 1272.429688 1213.488281 1276.949219 "/>
<path fill-rule="evenodd" fill="rgb(82.03125%, 77.929688%, 96.09375%)" fill-opacity="1" d="M 1082.710938 960.558594 L 1096.210938 955.421875 C 1101.488281 950.328125 1110.429688 950.5 1111.5 947.898438 C 1112 946.679688 1113.210938 946.929688 1113.960938 946.308594 C 1091.03125 937.238281 1072.171875 934.96875 1064.75 962.441406 L 1082.710938 960.558594 "/>
<path fill-rule="evenodd" fill="rgb(77.929688%, 68.943787%, 91.014099%)" fill-opacity="1" d="M 1666.371094 932.339844 L 1665.511719 930.230469 C 1664.550781 941.410156 1669.421875 943.179688 1679.5 945.820312 C 1689.320312 948.390625 1695.96875 948.511719 1706.171875 948.808594 L 1704.261719 937.710938 C 1688.628906 930.339844 1690.25 921.921875 1666.371094 932.339844 "/>
<path fill-rule="evenodd" fill="rgb(82.03125%, 77.929688%, 96.09375%)" fill-opacity="1" d="M 1456.089844 861.230469 C 1458.550781 867.679688 1450.5 866 1476.179688 868 C 1485.949219 868.761719 1487.070312 869.980469 1498.671875 869.851562 L 1496.449219 860.300781 C 1479.5 840.929688 1468.21875 852.289062 1456.089844 861.230469 "/>
<path fill-rule="evenodd" fill="rgb(46.99707%, 53.90625%, 71.09375%)" fill-opacity="1" d="M 1489.71875 2197.734375 C 1496.730469 2216.757812 1508.230469 2226.941406 1532.398438 2229.523438 C 1529.738281 2217.175781 1529.140625 2216.996094 1521.460938 2207.941406 L 1522.328125 2194.714844 L 1514.761719 2212.3125 C 1499.839844 2207.136719 1503.71875 2197.605469 1489.71875 2197.734375 "/>
<path fill-rule="evenodd" fill="rgb(41.992188%, 45.996094%, 46.99707%)" fill-opacity="1" d="M 1462.179688 1132.121094 C 1468.410156 1131.238281 1468.609375 1128.109375 1472.171875 1134.859375 C 1474.640625 1139.558594 1473.078125 1144.640625 1472.738281 1149.621094 L 1480.339844 1149.441406 L 1485.058594 1145.359375 C 1492.140625 1152.929688 1489.300781 1149.660156 1495.75 1152.738281 C 1491.980469 1144.121094 1490.050781 1143.140625 1486.308594 1135.738281 C 1482.960938 1129.121094 1482.429688 1123.121094 1479.550781 1116.429688 C 1471.738281 1121.300781 1467.261719 1126.050781 1462.179688 1132.121094 "/>
<path fill-rule="evenodd" fill="rgb(82.03125%, 77.929688%, 96.09375%)" fill-opacity="1" d="M 1192.710938 931.089844 C 1194.808594 925.019531 1199.058594 938.398438 1193.21875 924.351562 C 1191.050781 919.101562 1178.980469 919.480469 1173.640625 919.75 C 1160.609375 920.398438 1157.699219 922.21875 1153.601562 934.230469 L 1192.710938 931.089844 "/>
<path fill-rule="evenodd" fill="rgb(46.99707%, 53.90625%, 71.09375%)" fill-opacity="1" d="M 1342.878906 2182.273438 L 1344.480469 2191.953125 L 1347.269531 2200.328125 C 1364.339844 2194.746094 1369.640625 2186.289062 1375.078125 2170.9375 L 1368.589844 2168.5 C 1363.671875 2178.75 1364.738281 2174.84375 1356.28125 2182.722656 L 1342.878906 2182.273438 "/>
<path fill-rule="evenodd" fill="rgb(61.914062%, 35.009766%, 58.984375%)" fill-opacity="1" d="M 1696.980469 1065.46875 C 1698.980469 1058.320312 1696.78125 1064.621094 1699.671875 1058.339844 C 1700 1057.609375 1701.011719 1057.171875 1701.289062 1055.539062 C 1701.578125 1053.78125 1702.53125 1053.589844 1703.148438 1052.621094 L 1678.308594 1059.609375 C 1673.019531 1054.050781 1675.609375 1058.179688 1671.539062 1052.5 C 1663.300781 1041 1671.769531 1034.429688 1658.019531 1028.421875 C 1660.160156 1042.359375 1668.429688 1058.828125 1674.949219 1067.890625 C 1689.460938 1067.28125 1683.859375 1064.640625 1696.980469 1065.46875 "/>
<path fill-rule="evenodd" fill="rgb(82.03125%, 77.929688%, 96.09375%)" fill-opacity="1" d="M 1390.761719 859.53125 L 1390.28125 867.660156 L 1422.429688 864.550781 C 1425.550781 860.121094 1424.320312 865.550781 1423.578125 857.671875 C 1411.039062 845.199219 1399.980469 850.898438 1390.761719 859.53125 "/>
<path fill-rule="evenodd" fill="rgb(36.009216%, 40.989685%, 44.993591%)" fill-opacity="1" d="M 1101.109375 1301.171875 C 1109.601562 1303.980469 1107.039062 1298.75 1109.78125 1304.359375 L 1124.578125 1291.46875 C 1116.878906 1291.621094 1118.730469 1290.808594 1117.609375 1290.089844 L 1136.320312 1277.960938 C 1129.070312 1278.230469 1130.390625 1280.199219 1130.878906 1273.519531 C 1123.351562 1278.230469 1130.820312 1271.71875 1123.339844 1279.570312 C 1120.808594 1282.210938 1119.378906 1284.628906 1116.320312 1287.710938 C 1110.871094 1293.191406 1108.058594 1294.480469 1101.109375 1301.171875 "/>
<path fill-rule="evenodd" fill="rgb(12.010193%, 19.993591%, 31.005859%)" fill-opacity="1" d="M 1330.730469 2192.121094 C 1338.691406 2188.542969 1334.339844 2195.925781 1338.148438 2185.261719 C 1343.859375 2202.675781 1335.589844 2180.910156 1344.480469 2191.953125 L 1342.878906 2182.273438 L 1336.230469 2180.46875 L 1330.730469 2192.121094 "/>
<path fill-rule="evenodd" fill="rgb(28.001404%, 39.988708%, 52.929688%)" fill-opacity="1" d="M 1108.128906 1687.480469 L 1099.699219 1679.53125 C 1103.429688 1688.46875 1098.609375 1684.121094 1108.128906 1687.480469 "/>
</svg>
